%TF.GenerationSoftware,KiCad,Pcbnew,(5.1.8)-1*%
%TF.CreationDate,2021-03-17T17:45:33+01:00*%
%TF.ProjectId,C64 BlinkenDiag Faceplate,43363420-426c-4696-9e6b-656e44696167,rev?*%
%TF.SameCoordinates,Original*%
%TF.FileFunction,Profile,NP*%
%FSLAX46Y46*%
G04 Gerber Fmt 4.6, Leading zero omitted, Abs format (unit mm)*
G04 Created by KiCad (PCBNEW (5.1.8)-1) date 2021-03-17 17:45:33*
%MOMM*%
%LPD*%
G01*
G04 APERTURE LIST*
%TA.AperFunction,Profile*%
%ADD10C,0.025400*%
%TD*%
G04 APERTURE END LIST*
D10*
X137287000Y-77470000D02*
X137287000Y-68580000D01*
X122809000Y-77978000D02*
X136779000Y-77978000D01*
X122301000Y-68580000D02*
X122301000Y-77470000D01*
X122809000Y-68072000D02*
X136779000Y-68072000D01*
X122809000Y-77978000D02*
G75*
G02*
X122301000Y-77470000I0J508000D01*
G01*
X137287000Y-77470000D02*
G75*
G02*
X136779000Y-77978000I-508000J0D01*
G01*
X136779000Y-68072000D02*
G75*
G02*
X137287000Y-68580000I0J-508000D01*
G01*
X122301000Y-68580000D02*
G75*
G02*
X122809000Y-68072000I508000J0D01*
G01*
X219710000Y-81915000D02*
X219710000Y-86995000D01*
X210185000Y-81407000D02*
X219202000Y-81407000D01*
X209677000Y-72771000D02*
X209677000Y-80899000D01*
X209677000Y-61341000D02*
X209677000Y-72771000D01*
X209677000Y-49911000D02*
X209677000Y-61341000D01*
X219202000Y-49403000D02*
X210185000Y-49403000D01*
X219710000Y-48895000D02*
G75*
G02*
X219202000Y-49403000I-508000J0D01*
G01*
X219202000Y-81407000D02*
G75*
G02*
X219710000Y-81915000I0J-508000D01*
G01*
X210185000Y-81407000D02*
G75*
G02*
X209677000Y-80899000I0J508000D01*
G01*
X209677000Y-49911000D02*
G75*
G02*
X210185000Y-49403000I508000J0D01*
G01*
X179705000Y-34925000D02*
X179705000Y-21209000D01*
X203073000Y-34925000D02*
X203073000Y-21209000D01*
X202565000Y-35433000D02*
X180213000Y-35433000D01*
X203581000Y-20701000D02*
X215900000Y-20701000D01*
X203073000Y-21209000D02*
G75*
G02*
X203581000Y-20701000I508000J0D01*
G01*
X203073000Y-34925000D02*
G75*
G02*
X202565000Y-35433000I-508000J0D01*
G01*
X179197000Y-20701000D02*
G75*
G02*
X179705000Y-21209000I0J-508000D01*
G01*
X180213000Y-35433000D02*
G75*
G02*
X179705000Y-34925000I0J508000D01*
G01*
X216149000Y-41910000D02*
G75*
G03*
X216149000Y-41910000I-1900000J0D01*
G01*
X133599000Y-24765000D02*
G75*
G03*
X133599000Y-24765000I-1900000J0D01*
G01*
X140584000Y-24765000D02*
G75*
G03*
X140584000Y-24765000I-1900000J0D01*
G01*
X147569000Y-24765000D02*
G75*
G03*
X147569000Y-24765000I-1900000J0D01*
G01*
X154554000Y-24765000D02*
G75*
G03*
X154554000Y-24765000I-1900000J0D01*
G01*
X164079000Y-24765000D02*
G75*
G03*
X164079000Y-24765000I-1900000J0D01*
G01*
X171064000Y-24765000D02*
G75*
G03*
X171064000Y-24765000I-1900000J0D01*
G01*
X171064000Y-31750000D02*
G75*
G03*
X171064000Y-31750000I-1900000J0D01*
G01*
X164079000Y-31750000D02*
G75*
G03*
X164079000Y-31750000I-1900000J0D01*
G01*
X156459000Y-62865000D02*
G75*
G03*
X156459000Y-62865000I-1900000J0D01*
G01*
X163444000Y-62865000D02*
G75*
G03*
X163444000Y-62865000I-1900000J0D01*
G01*
X170429000Y-62865000D02*
G75*
G03*
X170429000Y-62865000I-1900000J0D01*
G01*
X177414000Y-62865000D02*
G75*
G03*
X177414000Y-62865000I-1900000J0D01*
G01*
X185034000Y-62865000D02*
G75*
G03*
X185034000Y-62865000I-1900000J0D01*
G01*
X192019000Y-62865000D02*
G75*
G03*
X192019000Y-62865000I-1900000J0D01*
G01*
X199004000Y-62865000D02*
G75*
G03*
X199004000Y-62865000I-1900000J0D01*
G01*
X205989000Y-62865000D02*
G75*
G03*
X205989000Y-62865000I-1900000J0D01*
G01*
X156459000Y-51435000D02*
G75*
G03*
X156459000Y-51435000I-1900000J0D01*
G01*
X163444000Y-51435000D02*
G75*
G03*
X163444000Y-51435000I-1900000J0D01*
G01*
X170429000Y-51435000D02*
G75*
G03*
X170429000Y-51435000I-1900000J0D01*
G01*
X177414000Y-51435000D02*
G75*
G03*
X177414000Y-51435000I-1900000J0D01*
G01*
X185034000Y-51435000D02*
G75*
G03*
X185034000Y-51435000I-1900000J0D01*
G01*
X192019000Y-51435000D02*
G75*
G03*
X192019000Y-51435000I-1900000J0D01*
G01*
X199004000Y-51435000D02*
G75*
G03*
X199004000Y-51435000I-1900000J0D01*
G01*
X205989000Y-51435000D02*
G75*
G03*
X205989000Y-51435000I-1900000J0D01*
G01*
X205989000Y-40005000D02*
G75*
G03*
X205989000Y-40005000I-1900000J0D01*
G01*
X199004000Y-40005000D02*
G75*
G03*
X199004000Y-40005000I-1900000J0D01*
G01*
X192019000Y-40005000D02*
G75*
G03*
X192019000Y-40005000I-1900000J0D01*
G01*
X185034000Y-40005000D02*
G75*
G03*
X185034000Y-40005000I-1900000J0D01*
G01*
X177414000Y-40005000D02*
G75*
G03*
X177414000Y-40005000I-1900000J0D01*
G01*
X170429000Y-40005000D02*
G75*
G03*
X170429000Y-40005000I-1900000J0D01*
G01*
X163444000Y-40005000D02*
G75*
G03*
X163444000Y-40005000I-1900000J0D01*
G01*
X156459000Y-40005000D02*
G75*
G03*
X156459000Y-40005000I-1900000J0D01*
G01*
X120269000Y-89789000D02*
G75*
G03*
X121285000Y-90805000I1016000J0D01*
G01*
X121285000Y-90805000D02*
X178689000Y-90805000D01*
X120269000Y-24511000D02*
X120269000Y-89789000D01*
X120269000Y-24511000D02*
G75*
G02*
X124079000Y-20701000I3810000J0D01*
G01*
X179197000Y-20701000D02*
X124079000Y-20701000D01*
X215900000Y-20701000D02*
G75*
G02*
X219710000Y-24511000I0J-3810000D01*
G01*
X219710000Y-86995000D02*
G75*
G02*
X215900000Y-90805000I-3810000J0D01*
G01*
X215900000Y-90805000D02*
X178689000Y-90805000D01*
X219710000Y-48895000D02*
X219710000Y-24511000D01*
M02*
