%TF.GenerationSoftware,KiCad,Pcbnew,(5.1.8)-1*%
%TF.CreationDate,2021-03-08T20:28:16+01:00*%
%TF.ProjectId,C64 BlinkenDiag Faceplate,43363420-426c-4696-9e6b-656e44696167,rev?*%
%TF.SameCoordinates,Original*%
%TF.FileFunction,Legend,Top*%
%TF.FilePolarity,Positive*%
%FSLAX46Y46*%
G04 Gerber Fmt 4.6, Leading zero omitted, Abs format (unit mm)*
G04 Created by KiCad (PCBNEW (5.1.8)-1) date 2021-03-08 20:28:16*
%MOMM*%
%LPD*%
G01*
G04 APERTURE LIST*
%ADD10C,0.150000*%
%ADD11C,0.100000*%
G04 APERTURE END LIST*
D10*
X210439000Y-82931000D02*
X219837000Y-82931000D01*
X184277000Y-82931000D02*
X197231000Y-82931000D01*
X200787000Y-78105000D02*
X201041000Y-84201000D01*
X200279000Y-83439000D02*
X200787000Y-78105000D01*
X198247000Y-81915000D02*
X199009000Y-82931000D01*
X202819000Y-82931000D02*
X204343000Y-81915000D01*
X201549000Y-82931000D02*
X202057000Y-82931000D01*
X205359000Y-82931000D02*
X210439000Y-82931000D01*
X202057000Y-82931000D02*
X202819000Y-82931000D01*
X197231000Y-82931000D02*
X198247000Y-81915000D01*
X199771000Y-82931000D02*
X200279000Y-83439000D01*
X204343000Y-81915000D02*
X205359000Y-82931000D01*
X201041000Y-84201000D02*
X201549000Y-82931000D01*
X199009000Y-82931000D02*
X199771000Y-82931000D01*
X174625000Y-78105000D02*
X174879000Y-84201000D01*
X174117000Y-83439000D02*
X174625000Y-78105000D01*
X172085000Y-81915000D02*
X172847000Y-82931000D01*
X176657000Y-82931000D02*
X178181000Y-81915000D01*
X175387000Y-82931000D02*
X175895000Y-82931000D01*
X179197000Y-82931000D02*
X184277000Y-82931000D01*
X175895000Y-82931000D02*
X176657000Y-82931000D01*
X171069000Y-82931000D02*
X172085000Y-81915000D01*
X173609000Y-82931000D02*
X174117000Y-83439000D01*
X178181000Y-81915000D02*
X179197000Y-82931000D01*
X174879000Y-84201000D02*
X175387000Y-82931000D01*
X172847000Y-82931000D02*
X173609000Y-82931000D01*
X162179000Y-82931000D02*
X162687000Y-82931000D01*
X161671000Y-84201000D02*
X162179000Y-82931000D01*
X165989000Y-82931000D02*
X171069000Y-82931000D01*
X164973000Y-81915000D02*
X165989000Y-82931000D01*
X163449000Y-82931000D02*
X164973000Y-81915000D01*
X162687000Y-82931000D02*
X163449000Y-82931000D01*
X161417000Y-78105000D02*
X161671000Y-84201000D01*
X160909000Y-83439000D02*
X161417000Y-78105000D01*
X160401000Y-82931000D02*
X160909000Y-83439000D01*
X159639000Y-82931000D02*
X160401000Y-82931000D01*
X158877000Y-81915000D02*
X159639000Y-82931000D01*
X157861000Y-82931000D02*
X158877000Y-81915000D01*
X120269000Y-82931000D02*
X157861000Y-82931000D01*
X150566380Y-42140000D02*
X149566380Y-42140000D01*
X149566380Y-41901904D01*
X149614000Y-41759047D01*
X149709238Y-41663809D01*
X149804476Y-41616190D01*
X149994952Y-41568571D01*
X150137809Y-41568571D01*
X150328285Y-41616190D01*
X150423523Y-41663809D01*
X150518761Y-41759047D01*
X150566380Y-41901904D01*
X150566380Y-42140000D01*
X150280666Y-41187619D02*
X150280666Y-40711428D01*
X150566380Y-41282857D02*
X149566380Y-40949523D01*
X150566380Y-40616190D01*
X149566380Y-40425714D02*
X149566380Y-39854285D01*
X150566380Y-40140000D02*
X149566380Y-40140000D01*
X150280666Y-39568571D02*
X150280666Y-39092380D01*
X150566380Y-39663809D02*
X149566380Y-39330476D01*
X150566380Y-38997142D01*
X150280666Y-60927857D02*
X150280666Y-60451666D01*
X150566380Y-61023095D02*
X149566380Y-60689761D01*
X150566380Y-60356428D01*
X150566380Y-60023095D02*
X149566380Y-60023095D01*
X149566380Y-59785000D01*
X149614000Y-59642142D01*
X149709238Y-59546904D01*
X149804476Y-59499285D01*
X149994952Y-59451666D01*
X150137809Y-59451666D01*
X150328285Y-59499285D01*
X150423523Y-59546904D01*
X150518761Y-59642142D01*
X150566380Y-59785000D01*
X150566380Y-60023095D01*
X150566380Y-59023095D02*
X149566380Y-59023095D01*
X149566380Y-58785000D01*
X149614000Y-58642142D01*
X149709238Y-58546904D01*
X149804476Y-58499285D01*
X149994952Y-58451666D01*
X150137809Y-58451666D01*
X150328285Y-58499285D01*
X150423523Y-58546904D01*
X150518761Y-58642142D01*
X150566380Y-58785000D01*
X150566380Y-59023095D01*
X150566380Y-57451666D02*
X150090190Y-57785000D01*
X150566380Y-58023095D02*
X149566380Y-58023095D01*
X149566380Y-57642142D01*
X149614000Y-57546904D01*
X149661619Y-57499285D01*
X149756857Y-57451666D01*
X149899714Y-57451666D01*
X149994952Y-57499285D01*
X150042571Y-57546904D01*
X150090190Y-57642142D01*
X150090190Y-58023095D01*
X150042571Y-57023095D02*
X150042571Y-56689761D01*
X150566380Y-56546904D02*
X150566380Y-57023095D01*
X149566380Y-57023095D01*
X149566380Y-56546904D01*
X150518761Y-56165952D02*
X150566380Y-56023095D01*
X150566380Y-55785000D01*
X150518761Y-55689761D01*
X150471142Y-55642142D01*
X150375904Y-55594523D01*
X150280666Y-55594523D01*
X150185428Y-55642142D01*
X150137809Y-55689761D01*
X150090190Y-55785000D01*
X150042571Y-55975476D01*
X149994952Y-56070714D01*
X149947333Y-56118333D01*
X149852095Y-56165952D01*
X149756857Y-56165952D01*
X149661619Y-56118333D01*
X149614000Y-56070714D01*
X149566380Y-55975476D01*
X149566380Y-55737380D01*
X149614000Y-55594523D01*
X150518761Y-55213571D02*
X150566380Y-55070714D01*
X150566380Y-54832619D01*
X150518761Y-54737380D01*
X150471142Y-54689761D01*
X150375904Y-54642142D01*
X150280666Y-54642142D01*
X150185428Y-54689761D01*
X150137809Y-54737380D01*
X150090190Y-54832619D01*
X150042571Y-55023095D01*
X149994952Y-55118333D01*
X149947333Y-55165952D01*
X149852095Y-55213571D01*
X149756857Y-55213571D01*
X149661619Y-55165952D01*
X149614000Y-55118333D01*
X149566380Y-55023095D01*
X149566380Y-54785000D01*
X149614000Y-54642142D01*
X151384000Y-36830000D02*
X206629000Y-36830000D01*
X151384000Y-44450000D02*
X151384000Y-36830000D01*
X206629000Y-44450000D02*
X151384000Y-44450000D01*
X206629000Y-36830000D02*
X206629000Y-44450000D01*
X151384000Y-67310000D02*
X206629000Y-67310000D01*
X151384000Y-48260000D02*
X151384000Y-67310000D01*
X206629000Y-48260000D02*
X151384000Y-48260000D01*
X206629000Y-67310000D02*
X206629000Y-48260000D01*
X121539000Y-66040000D02*
X121539000Y-80010000D01*
X121539000Y-66040000D02*
X146304000Y-66040000D01*
X146304000Y-80010000D02*
X146304000Y-66040000D01*
X121539000Y-80010000D02*
X146304000Y-80010000D01*
X129461142Y-64698571D02*
X129604000Y-64746190D01*
X129651619Y-64793809D01*
X129699238Y-64889047D01*
X129699238Y-65031904D01*
X129651619Y-65127142D01*
X129604000Y-65174761D01*
X129508761Y-65222380D01*
X129127809Y-65222380D01*
X129127809Y-64222380D01*
X129461142Y-64222380D01*
X129556380Y-64270000D01*
X129604000Y-64317619D01*
X129651619Y-64412857D01*
X129651619Y-64508095D01*
X129604000Y-64603333D01*
X129556380Y-64650952D01*
X129461142Y-64698571D01*
X129127809Y-64698571D01*
X130127809Y-64222380D02*
X130127809Y-65031904D01*
X130175428Y-65127142D01*
X130223047Y-65174761D01*
X130318285Y-65222380D01*
X130508761Y-65222380D01*
X130604000Y-65174761D01*
X130651619Y-65127142D01*
X130699238Y-65031904D01*
X130699238Y-64222380D01*
X131127809Y-65174761D02*
X131270666Y-65222380D01*
X131508761Y-65222380D01*
X131604000Y-65174761D01*
X131651619Y-65127142D01*
X131699238Y-65031904D01*
X131699238Y-64936666D01*
X131651619Y-64841428D01*
X131604000Y-64793809D01*
X131508761Y-64746190D01*
X131318285Y-64698571D01*
X131223047Y-64650952D01*
X131175428Y-64603333D01*
X131127809Y-64508095D01*
X131127809Y-64412857D01*
X131175428Y-64317619D01*
X131223047Y-64270000D01*
X131318285Y-64222380D01*
X131556380Y-64222380D01*
X131699238Y-64270000D01*
X133080190Y-64222380D02*
X133270666Y-64222380D01*
X133365904Y-64270000D01*
X133461142Y-64365238D01*
X133508761Y-64555714D01*
X133508761Y-64889047D01*
X133461142Y-65079523D01*
X133365904Y-65174761D01*
X133270666Y-65222380D01*
X133080190Y-65222380D01*
X132984952Y-65174761D01*
X132889714Y-65079523D01*
X132842095Y-64889047D01*
X132842095Y-64555714D01*
X132889714Y-64365238D01*
X132984952Y-64270000D01*
X133080190Y-64222380D01*
X133937333Y-64222380D02*
X133937333Y-65031904D01*
X133984952Y-65127142D01*
X134032571Y-65174761D01*
X134127809Y-65222380D01*
X134318285Y-65222380D01*
X134413523Y-65174761D01*
X134461142Y-65127142D01*
X134508761Y-65031904D01*
X134508761Y-64222380D01*
X134842095Y-64222380D02*
X135413523Y-64222380D01*
X135127809Y-65222380D02*
X135127809Y-64222380D01*
X135746857Y-65222380D02*
X135746857Y-64222380D01*
X136127809Y-64222380D01*
X136223047Y-64270000D01*
X136270666Y-64317619D01*
X136318285Y-64412857D01*
X136318285Y-64555714D01*
X136270666Y-64650952D01*
X136223047Y-64698571D01*
X136127809Y-64746190D01*
X135746857Y-64746190D01*
X136746857Y-64222380D02*
X136746857Y-65031904D01*
X136794476Y-65127142D01*
X136842095Y-65174761D01*
X136937333Y-65222380D01*
X137127809Y-65222380D01*
X137223047Y-65174761D01*
X137270666Y-65127142D01*
X137318285Y-65031904D01*
X137318285Y-64222380D01*
X137651619Y-64222380D02*
X138223047Y-64222380D01*
X137937333Y-65222380D02*
X137937333Y-64222380D01*
D11*
X122555238Y-67633809D02*
X122669523Y-67671904D01*
X122860000Y-67671904D01*
X122936190Y-67633809D01*
X122974285Y-67595714D01*
X123012380Y-67519523D01*
X123012380Y-67443333D01*
X122974285Y-67367142D01*
X122936190Y-67329047D01*
X122860000Y-67290952D01*
X122707619Y-67252857D01*
X122631428Y-67214761D01*
X122593333Y-67176666D01*
X122555238Y-67100476D01*
X122555238Y-67024285D01*
X122593333Y-66948095D01*
X122631428Y-66910000D01*
X122707619Y-66871904D01*
X122898095Y-66871904D01*
X123012380Y-66910000D01*
X123355238Y-67671904D02*
X123355238Y-66871904D01*
X124155238Y-66910000D02*
X124079047Y-66871904D01*
X123964761Y-66871904D01*
X123850476Y-66910000D01*
X123774285Y-66986190D01*
X123736190Y-67062380D01*
X123698095Y-67214761D01*
X123698095Y-67329047D01*
X123736190Y-67481428D01*
X123774285Y-67557619D01*
X123850476Y-67633809D01*
X123964761Y-67671904D01*
X124040952Y-67671904D01*
X124155238Y-67633809D01*
X124193333Y-67595714D01*
X124193333Y-67329047D01*
X124040952Y-67329047D01*
X124536190Y-67671904D02*
X124536190Y-66871904D01*
X124993333Y-67671904D01*
X124993333Y-66871904D01*
X125336190Y-67443333D02*
X125717142Y-67443333D01*
X125260000Y-67671904D02*
X125526666Y-66871904D01*
X125793333Y-67671904D01*
X126440952Y-67671904D02*
X126060000Y-67671904D01*
X126060000Y-66871904D01*
X141446476Y-70173857D02*
X141713142Y-70173857D01*
X141827428Y-70592904D02*
X141446476Y-70592904D01*
X141446476Y-69792904D01*
X141827428Y-69792904D01*
X142170285Y-70059571D02*
X142170285Y-70592904D01*
X142170285Y-70135761D02*
X142208380Y-70097666D01*
X142284571Y-70059571D01*
X142398857Y-70059571D01*
X142475047Y-70097666D01*
X142513142Y-70173857D01*
X142513142Y-70592904D01*
X143236952Y-70592904D02*
X143236952Y-70173857D01*
X143198857Y-70097666D01*
X143122666Y-70059571D01*
X142970285Y-70059571D01*
X142894095Y-70097666D01*
X143236952Y-70554809D02*
X143160761Y-70592904D01*
X142970285Y-70592904D01*
X142894095Y-70554809D01*
X142856000Y-70478619D01*
X142856000Y-70402428D01*
X142894095Y-70326238D01*
X142970285Y-70288142D01*
X143160761Y-70288142D01*
X143236952Y-70250047D01*
X143617904Y-70592904D02*
X143617904Y-69792904D01*
X143617904Y-70097666D02*
X143694095Y-70059571D01*
X143846476Y-70059571D01*
X143922666Y-70097666D01*
X143960761Y-70135761D01*
X143998857Y-70211952D01*
X143998857Y-70440523D01*
X143960761Y-70516714D01*
X143922666Y-70554809D01*
X143846476Y-70592904D01*
X143694095Y-70592904D01*
X143617904Y-70554809D01*
X144456000Y-70592904D02*
X144379809Y-70554809D01*
X144341714Y-70478619D01*
X144341714Y-69792904D01*
X145065523Y-70554809D02*
X144989333Y-70592904D01*
X144836952Y-70592904D01*
X144760761Y-70554809D01*
X144722666Y-70478619D01*
X144722666Y-70173857D01*
X144760761Y-70097666D01*
X144836952Y-70059571D01*
X144989333Y-70059571D01*
X145065523Y-70097666D01*
X145103619Y-70173857D01*
X145103619Y-70250047D01*
X144722666Y-70326238D01*
D10*
X144018000Y-74295000D02*
X144018000Y-70993000D01*
X142748000Y-71247000D02*
X143764000Y-71247000D01*
X143510000Y-73787000D02*
G75*
G03*
X143510000Y-73787000I-254000J0D01*
G01*
X143510000Y-72771000D02*
G75*
G03*
X143510000Y-72771000I-254000J0D01*
G01*
X142494000Y-70993000D02*
X142494000Y-74295000D01*
X143764000Y-71247000D02*
X143764000Y-73279000D01*
X143510000Y-71755000D02*
G75*
G03*
X143510000Y-71755000I-254000J0D01*
G01*
X142494000Y-74295000D02*
X144018000Y-74295000D01*
X144018000Y-70993000D02*
X142494000Y-70993000D01*
X142748000Y-73279000D02*
X142748000Y-71247000D01*
X143764000Y-73279000D02*
X142748000Y-73279000D01*
D11*
X138208000Y-75418904D02*
X138208000Y-74618904D01*
X138398476Y-74618904D01*
X138512761Y-74657000D01*
X138588952Y-74733190D01*
X138627047Y-74809380D01*
X138665142Y-74961761D01*
X138665142Y-75076047D01*
X138627047Y-75228428D01*
X138588952Y-75304619D01*
X138512761Y-75380809D01*
X138398476Y-75418904D01*
X138208000Y-75418904D01*
X139008000Y-75418904D02*
X139008000Y-74885571D01*
X139008000Y-74618904D02*
X138969904Y-74657000D01*
X139008000Y-74695095D01*
X139046095Y-74657000D01*
X139008000Y-74618904D01*
X139008000Y-74695095D01*
X139350857Y-75380809D02*
X139427047Y-75418904D01*
X139579428Y-75418904D01*
X139655619Y-75380809D01*
X139693714Y-75304619D01*
X139693714Y-75266523D01*
X139655619Y-75190333D01*
X139579428Y-75152238D01*
X139465142Y-75152238D01*
X139388952Y-75114142D01*
X139350857Y-75037952D01*
X139350857Y-74999857D01*
X139388952Y-74923666D01*
X139465142Y-74885571D01*
X139579428Y-74885571D01*
X139655619Y-74923666D01*
X140379428Y-75418904D02*
X140379428Y-74999857D01*
X140341333Y-74923666D01*
X140265142Y-74885571D01*
X140112761Y-74885571D01*
X140036571Y-74923666D01*
X140379428Y-75380809D02*
X140303238Y-75418904D01*
X140112761Y-75418904D01*
X140036571Y-75380809D01*
X139998476Y-75304619D01*
X139998476Y-75228428D01*
X140036571Y-75152238D01*
X140112761Y-75114142D01*
X140303238Y-75114142D01*
X140379428Y-75076047D01*
X140760380Y-75418904D02*
X140760380Y-74618904D01*
X140760380Y-74923666D02*
X140836571Y-74885571D01*
X140988952Y-74885571D01*
X141065142Y-74923666D01*
X141103238Y-74961761D01*
X141141333Y-75037952D01*
X141141333Y-75266523D01*
X141103238Y-75342714D01*
X141065142Y-75380809D01*
X140988952Y-75418904D01*
X140836571Y-75418904D01*
X140760380Y-75380809D01*
X141598476Y-75418904D02*
X141522285Y-75380809D01*
X141484190Y-75304619D01*
X141484190Y-74618904D01*
X142208000Y-75380809D02*
X142131809Y-75418904D01*
X141979428Y-75418904D01*
X141903238Y-75380809D01*
X141865142Y-75304619D01*
X141865142Y-74999857D01*
X141903238Y-74923666D01*
X141979428Y-74885571D01*
X142131809Y-74885571D01*
X142208000Y-74923666D01*
X142246095Y-74999857D01*
X142246095Y-75076047D01*
X141865142Y-75152238D01*
D10*
X140970000Y-70993000D02*
X139446000Y-70993000D01*
X140970000Y-74295000D02*
X140970000Y-70993000D01*
X139446000Y-74295000D02*
X140970000Y-74295000D01*
X139446000Y-70993000D02*
X139446000Y-74295000D01*
X139700000Y-74041000D02*
X139700000Y-72009000D01*
X140716000Y-74041000D02*
X139700000Y-74041000D01*
X140716000Y-72009000D02*
X140716000Y-74041000D01*
X139700000Y-72009000D02*
X140716000Y-72009000D01*
X140462000Y-71501000D02*
G75*
G03*
X140462000Y-71501000I-254000J0D01*
G01*
X140462000Y-72517000D02*
G75*
G03*
X140462000Y-72517000I-254000J0D01*
G01*
X140462000Y-73533000D02*
G75*
G03*
X140462000Y-73533000I-254000J0D01*
G01*
X128224595Y-55808571D02*
X128557928Y-55808571D01*
X128700785Y-56332380D02*
X128224595Y-56332380D01*
X128224595Y-55332380D01*
X128700785Y-55332380D01*
X129129357Y-55665714D02*
X129129357Y-56332380D01*
X129129357Y-55760952D02*
X129176976Y-55713333D01*
X129272214Y-55665714D01*
X129415071Y-55665714D01*
X129510309Y-55713333D01*
X129557928Y-55808571D01*
X129557928Y-56332380D01*
X130462690Y-56332380D02*
X130462690Y-55808571D01*
X130415071Y-55713333D01*
X130319833Y-55665714D01*
X130129357Y-55665714D01*
X130034119Y-55713333D01*
X130462690Y-56284761D02*
X130367452Y-56332380D01*
X130129357Y-56332380D01*
X130034119Y-56284761D01*
X129986500Y-56189523D01*
X129986500Y-56094285D01*
X130034119Y-55999047D01*
X130129357Y-55951428D01*
X130367452Y-55951428D01*
X130462690Y-55903809D01*
X130938880Y-56332380D02*
X130938880Y-55332380D01*
X130938880Y-55713333D02*
X131034119Y-55665714D01*
X131224595Y-55665714D01*
X131319833Y-55713333D01*
X131367452Y-55760952D01*
X131415071Y-55856190D01*
X131415071Y-56141904D01*
X131367452Y-56237142D01*
X131319833Y-56284761D01*
X131224595Y-56332380D01*
X131034119Y-56332380D01*
X130938880Y-56284761D01*
X131986500Y-56332380D02*
X131891261Y-56284761D01*
X131843642Y-56189523D01*
X131843642Y-55332380D01*
X132748404Y-56284761D02*
X132653166Y-56332380D01*
X132462690Y-56332380D01*
X132367452Y-56284761D01*
X132319833Y-56189523D01*
X132319833Y-55808571D01*
X132367452Y-55713333D01*
X132462690Y-55665714D01*
X132653166Y-55665714D01*
X132748404Y-55713333D01*
X132796023Y-55808571D01*
X132796023Y-55903809D01*
X132319833Y-55999047D01*
X133653166Y-56332380D02*
X133653166Y-55332380D01*
X133653166Y-56284761D02*
X133557928Y-56332380D01*
X133367452Y-56332380D01*
X133272214Y-56284761D01*
X133224595Y-56237142D01*
X133176976Y-56141904D01*
X133176976Y-55856190D01*
X133224595Y-55760952D01*
X133272214Y-55713333D01*
X133367452Y-55665714D01*
X133557928Y-55665714D01*
X133653166Y-55713333D01*
X143764000Y-57150000D02*
X124079000Y-57150000D01*
X143764000Y-50165000D02*
X143764000Y-57150000D01*
X124079000Y-50165000D02*
X143764000Y-50165000D01*
X124079000Y-57150000D02*
X124079000Y-50165000D01*
X128224595Y-53157380D02*
X128224595Y-52157380D01*
X128557928Y-52871666D01*
X128891261Y-52157380D01*
X128891261Y-53157380D01*
X129796023Y-53157380D02*
X129796023Y-52633571D01*
X129748404Y-52538333D01*
X129653166Y-52490714D01*
X129462690Y-52490714D01*
X129367452Y-52538333D01*
X129796023Y-53109761D02*
X129700785Y-53157380D01*
X129462690Y-53157380D01*
X129367452Y-53109761D01*
X129319833Y-53014523D01*
X129319833Y-52919285D01*
X129367452Y-52824047D01*
X129462690Y-52776428D01*
X129700785Y-52776428D01*
X129796023Y-52728809D01*
X130272214Y-52490714D02*
X130272214Y-53490714D01*
X130272214Y-52538333D02*
X130367452Y-52490714D01*
X130557928Y-52490714D01*
X130653166Y-52538333D01*
X130700785Y-52585952D01*
X130748404Y-52681190D01*
X130748404Y-52966904D01*
X130700785Y-53062142D01*
X130653166Y-53109761D01*
X130557928Y-53157380D01*
X130367452Y-53157380D01*
X130272214Y-53109761D01*
X131176976Y-52490714D02*
X131176976Y-53490714D01*
X131176976Y-52538333D02*
X131272214Y-52490714D01*
X131462690Y-52490714D01*
X131557928Y-52538333D01*
X131605547Y-52585952D01*
X131653166Y-52681190D01*
X131653166Y-52966904D01*
X131605547Y-53062142D01*
X131557928Y-53109761D01*
X131462690Y-53157380D01*
X131272214Y-53157380D01*
X131176976Y-53109761D01*
X132462690Y-53109761D02*
X132367452Y-53157380D01*
X132176976Y-53157380D01*
X132081738Y-53109761D01*
X132034119Y-53014523D01*
X132034119Y-52633571D01*
X132081738Y-52538333D01*
X132176976Y-52490714D01*
X132367452Y-52490714D01*
X132462690Y-52538333D01*
X132510309Y-52633571D01*
X132510309Y-52728809D01*
X132034119Y-52824047D01*
X133367452Y-53157380D02*
X133367452Y-52157380D01*
X133367452Y-53109761D02*
X133272214Y-53157380D01*
X133081738Y-53157380D01*
X132986500Y-53109761D01*
X132938880Y-53062142D01*
X132891261Y-52966904D01*
X132891261Y-52681190D01*
X132938880Y-52585952D01*
X132986500Y-52538333D01*
X133081738Y-52490714D01*
X133272214Y-52490714D01*
X133367452Y-52538333D01*
X134748404Y-53157380D02*
X134653166Y-53109761D01*
X134605547Y-53062142D01*
X134557928Y-52966904D01*
X134557928Y-52681190D01*
X134605547Y-52585952D01*
X134653166Y-52538333D01*
X134748404Y-52490714D01*
X134891261Y-52490714D01*
X134986500Y-52538333D01*
X135034119Y-52585952D01*
X135081738Y-52681190D01*
X135081738Y-52966904D01*
X135034119Y-53062142D01*
X134986500Y-53109761D01*
X134891261Y-53157380D01*
X134748404Y-53157380D01*
X135938880Y-52490714D02*
X135938880Y-53157380D01*
X135510309Y-52490714D02*
X135510309Y-53014523D01*
X135557928Y-53109761D01*
X135653166Y-53157380D01*
X135796023Y-53157380D01*
X135891261Y-53109761D01*
X135938880Y-53062142D01*
X136272214Y-52490714D02*
X136653166Y-52490714D01*
X136415071Y-52157380D02*
X136415071Y-53014523D01*
X136462690Y-53109761D01*
X136557928Y-53157380D01*
X136653166Y-53157380D01*
X132096142Y-49347380D02*
X131762809Y-48871190D01*
X131524714Y-49347380D02*
X131524714Y-48347380D01*
X131905666Y-48347380D01*
X132000904Y-48395000D01*
X132048523Y-48442619D01*
X132096142Y-48537857D01*
X132096142Y-48680714D01*
X132048523Y-48775952D01*
X132000904Y-48823571D01*
X131905666Y-48871190D01*
X131524714Y-48871190D01*
X132715190Y-48347380D02*
X132905666Y-48347380D01*
X133000904Y-48395000D01*
X133096142Y-48490238D01*
X133143761Y-48680714D01*
X133143761Y-49014047D01*
X133096142Y-49204523D01*
X133000904Y-49299761D01*
X132905666Y-49347380D01*
X132715190Y-49347380D01*
X132619952Y-49299761D01*
X132524714Y-49204523D01*
X132477095Y-49014047D01*
X132477095Y-48680714D01*
X132524714Y-48490238D01*
X132619952Y-48395000D01*
X132715190Y-48347380D01*
X133572333Y-49347380D02*
X133572333Y-48347380D01*
X133905666Y-49061666D01*
X134239000Y-48347380D01*
X134239000Y-49347380D01*
X134477095Y-49442619D02*
X135239000Y-49442619D01*
X135477095Y-48823571D02*
X135810428Y-48823571D01*
X135953285Y-49347380D02*
X135477095Y-49347380D01*
X135477095Y-48347380D01*
X135953285Y-48347380D01*
X136381857Y-49347380D02*
X136381857Y-48347380D01*
X136953285Y-49347380D01*
X136953285Y-48347380D01*
X125349000Y-55880000D02*
X124714000Y-55880000D01*
X126619000Y-55880000D02*
X126619000Y-53975000D01*
X127254000Y-55880000D02*
X126619000Y-55880000D01*
X124714000Y-55880000D02*
X124714000Y-56515000D01*
X127254000Y-53340000D02*
X124714000Y-53340000D01*
X124714000Y-56515000D02*
X127254000Y-56515000D01*
X125349000Y-52705000D02*
X125349000Y-52070000D01*
X127254000Y-56515000D02*
X127254000Y-55880000D01*
X125349000Y-53975000D02*
X125349000Y-55880000D01*
X124714000Y-53340000D02*
X124714000Y-52705000D01*
X126619000Y-52705000D02*
X127254000Y-52705000D01*
X126619000Y-53975000D02*
X125349000Y-53975000D01*
X126619000Y-52070000D02*
X126619000Y-52705000D01*
X127254000Y-52705000D02*
X127254000Y-53340000D01*
X125349000Y-52070000D02*
X126619000Y-52070000D01*
X124714000Y-52705000D02*
X125349000Y-52705000D01*
X131167571Y-36123571D02*
X130834238Y-36123571D01*
X130834238Y-36647380D02*
X130834238Y-35647380D01*
X131310428Y-35647380D01*
X131691380Y-35647380D02*
X131691380Y-36456904D01*
X131739000Y-36552142D01*
X131786619Y-36599761D01*
X131881857Y-36647380D01*
X132072333Y-36647380D01*
X132167571Y-36599761D01*
X132215190Y-36552142D01*
X132262809Y-36456904D01*
X132262809Y-35647380D01*
X132739000Y-36647380D02*
X132739000Y-35647380D01*
X133310428Y-36647380D01*
X133310428Y-35647380D01*
X134358047Y-36552142D02*
X134310428Y-36599761D01*
X134167571Y-36647380D01*
X134072333Y-36647380D01*
X133929476Y-36599761D01*
X133834238Y-36504523D01*
X133786619Y-36409285D01*
X133739000Y-36218809D01*
X133739000Y-36075952D01*
X133786619Y-35885476D01*
X133834238Y-35790238D01*
X133929476Y-35695000D01*
X134072333Y-35647380D01*
X134167571Y-35647380D01*
X134310428Y-35695000D01*
X134358047Y-35742619D01*
X134643761Y-35647380D02*
X135215190Y-35647380D01*
X134929476Y-36647380D02*
X134929476Y-35647380D01*
X135548523Y-36647380D02*
X135548523Y-35647380D01*
X136215190Y-35647380D02*
X136405666Y-35647380D01*
X136500904Y-35695000D01*
X136596142Y-35790238D01*
X136643761Y-35980714D01*
X136643761Y-36314047D01*
X136596142Y-36504523D01*
X136500904Y-36599761D01*
X136405666Y-36647380D01*
X136215190Y-36647380D01*
X136119952Y-36599761D01*
X136024714Y-36504523D01*
X135977095Y-36314047D01*
X135977095Y-35980714D01*
X136024714Y-35790238D01*
X136119952Y-35695000D01*
X136215190Y-35647380D01*
X137072333Y-36647380D02*
X137072333Y-35647380D01*
X137643761Y-36647380D01*
X137643761Y-35647380D01*
X124079000Y-44450000D02*
X124079000Y-37465000D01*
X143764000Y-44450000D02*
X124079000Y-44450000D01*
X143764000Y-37465000D02*
X143764000Y-44450000D01*
X124079000Y-37465000D02*
X143764000Y-37465000D01*
X128224595Y-43632380D02*
X128224595Y-42632380D01*
X128462690Y-42632380D01*
X128605547Y-42680000D01*
X128700785Y-42775238D01*
X128748404Y-42870476D01*
X128796023Y-43060952D01*
X128796023Y-43203809D01*
X128748404Y-43394285D01*
X128700785Y-43489523D01*
X128605547Y-43584761D01*
X128462690Y-43632380D01*
X128224595Y-43632380D01*
X129224595Y-43632380D02*
X129224595Y-42965714D01*
X129224595Y-42632380D02*
X129176976Y-42680000D01*
X129224595Y-42727619D01*
X129272214Y-42680000D01*
X129224595Y-42632380D01*
X129224595Y-42727619D01*
X130129357Y-43632380D02*
X130129357Y-43108571D01*
X130081738Y-43013333D01*
X129986500Y-42965714D01*
X129796023Y-42965714D01*
X129700785Y-43013333D01*
X130129357Y-43584761D02*
X130034119Y-43632380D01*
X129796023Y-43632380D01*
X129700785Y-43584761D01*
X129653166Y-43489523D01*
X129653166Y-43394285D01*
X129700785Y-43299047D01*
X129796023Y-43251428D01*
X130034119Y-43251428D01*
X130129357Y-43203809D01*
X131034119Y-42965714D02*
X131034119Y-43775238D01*
X130986500Y-43870476D01*
X130938880Y-43918095D01*
X130843642Y-43965714D01*
X130700785Y-43965714D01*
X130605547Y-43918095D01*
X131034119Y-43584761D02*
X130938880Y-43632380D01*
X130748404Y-43632380D01*
X130653166Y-43584761D01*
X130605547Y-43537142D01*
X130557928Y-43441904D01*
X130557928Y-43156190D01*
X130605547Y-43060952D01*
X130653166Y-43013333D01*
X130748404Y-42965714D01*
X130938880Y-42965714D01*
X131034119Y-43013333D01*
X131510309Y-42965714D02*
X131510309Y-43632380D01*
X131510309Y-43060952D02*
X131557928Y-43013333D01*
X131653166Y-42965714D01*
X131796023Y-42965714D01*
X131891261Y-43013333D01*
X131938880Y-43108571D01*
X131938880Y-43632380D01*
X132557928Y-43632380D02*
X132462690Y-43584761D01*
X132415071Y-43537142D01*
X132367452Y-43441904D01*
X132367452Y-43156190D01*
X132415071Y-43060952D01*
X132462690Y-43013333D01*
X132557928Y-42965714D01*
X132700785Y-42965714D01*
X132796023Y-43013333D01*
X132843642Y-43060952D01*
X132891261Y-43156190D01*
X132891261Y-43441904D01*
X132843642Y-43537142D01*
X132796023Y-43584761D01*
X132700785Y-43632380D01*
X132557928Y-43632380D01*
X133272214Y-43584761D02*
X133367452Y-43632380D01*
X133557928Y-43632380D01*
X133653166Y-43584761D01*
X133700785Y-43489523D01*
X133700785Y-43441904D01*
X133653166Y-43346666D01*
X133557928Y-43299047D01*
X133415071Y-43299047D01*
X133319833Y-43251428D01*
X133272214Y-43156190D01*
X133272214Y-43108571D01*
X133319833Y-43013333D01*
X133415071Y-42965714D01*
X133557928Y-42965714D01*
X133653166Y-43013333D01*
X133986500Y-42965714D02*
X134367452Y-42965714D01*
X134129357Y-42632380D02*
X134129357Y-43489523D01*
X134176976Y-43584761D01*
X134272214Y-43632380D01*
X134367452Y-43632380D01*
X134700785Y-43632380D02*
X134700785Y-42965714D01*
X134700785Y-42632380D02*
X134653166Y-42680000D01*
X134700785Y-42727619D01*
X134748404Y-42680000D01*
X134700785Y-42632380D01*
X134700785Y-42727619D01*
X135605547Y-43584761D02*
X135510309Y-43632380D01*
X135319833Y-43632380D01*
X135224595Y-43584761D01*
X135176976Y-43537142D01*
X135129357Y-43441904D01*
X135129357Y-43156190D01*
X135176976Y-43060952D01*
X135224595Y-43013333D01*
X135319833Y-42965714D01*
X135510309Y-42965714D01*
X135605547Y-43013333D01*
X137367452Y-43537142D02*
X137319833Y-43584761D01*
X137176976Y-43632380D01*
X137081738Y-43632380D01*
X136938880Y-43584761D01*
X136843642Y-43489523D01*
X136796023Y-43394285D01*
X136748404Y-43203809D01*
X136748404Y-43060952D01*
X136796023Y-42870476D01*
X136843642Y-42775238D01*
X136938880Y-42680000D01*
X137081738Y-42632380D01*
X137176976Y-42632380D01*
X137319833Y-42680000D01*
X137367452Y-42727619D01*
X138224595Y-43632380D02*
X138224595Y-43108571D01*
X138176976Y-43013333D01*
X138081738Y-42965714D01*
X137891261Y-42965714D01*
X137796023Y-43013333D01*
X138224595Y-43584761D02*
X138129357Y-43632380D01*
X137891261Y-43632380D01*
X137796023Y-43584761D01*
X137748404Y-43489523D01*
X137748404Y-43394285D01*
X137796023Y-43299047D01*
X137891261Y-43251428D01*
X138129357Y-43251428D01*
X138224595Y-43203809D01*
X138700785Y-43632380D02*
X138700785Y-42965714D01*
X138700785Y-43156190D02*
X138748404Y-43060952D01*
X138796023Y-43013333D01*
X138891261Y-42965714D01*
X138986500Y-42965714D01*
X139176976Y-42965714D02*
X139557928Y-42965714D01*
X139319833Y-42632380D02*
X139319833Y-43489523D01*
X139367452Y-43584761D01*
X139462690Y-43632380D01*
X139557928Y-43632380D01*
X139891261Y-43632380D02*
X139891261Y-42965714D01*
X139891261Y-43156190D02*
X139938880Y-43060952D01*
X139986500Y-43013333D01*
X140081738Y-42965714D01*
X140176976Y-42965714D01*
X140510309Y-43632380D02*
X140510309Y-42965714D01*
X140510309Y-42632380D02*
X140462690Y-42680000D01*
X140510309Y-42727619D01*
X140557928Y-42680000D01*
X140510309Y-42632380D01*
X140510309Y-42727619D01*
X141415071Y-43632380D02*
X141415071Y-42632380D01*
X141415071Y-43584761D02*
X141319833Y-43632380D01*
X141129357Y-43632380D01*
X141034119Y-43584761D01*
X140986500Y-43537142D01*
X140938880Y-43441904D01*
X140938880Y-43156190D01*
X140986500Y-43060952D01*
X141034119Y-43013333D01*
X141129357Y-42965714D01*
X141319833Y-42965714D01*
X141415071Y-43013333D01*
X142319833Y-42965714D02*
X142319833Y-43775238D01*
X142272214Y-43870476D01*
X142224595Y-43918095D01*
X142129357Y-43965714D01*
X141986500Y-43965714D01*
X141891261Y-43918095D01*
X142319833Y-43584761D02*
X142224595Y-43632380D01*
X142034119Y-43632380D01*
X141938880Y-43584761D01*
X141891261Y-43537142D01*
X141843642Y-43441904D01*
X141843642Y-43156190D01*
X141891261Y-43060952D01*
X141938880Y-43013333D01*
X142034119Y-42965714D01*
X142224595Y-42965714D01*
X142319833Y-43013333D01*
X143176976Y-43584761D02*
X143081738Y-43632380D01*
X142891261Y-43632380D01*
X142796023Y-43584761D01*
X142748404Y-43489523D01*
X142748404Y-43108571D01*
X142796023Y-43013333D01*
X142891261Y-42965714D01*
X143081738Y-42965714D01*
X143176976Y-43013333D01*
X143224595Y-43108571D01*
X143224595Y-43203809D01*
X142748404Y-43299047D01*
X128224595Y-40457380D02*
X128224595Y-39457380D01*
X128462690Y-39457380D01*
X128605547Y-39505000D01*
X128700785Y-39600238D01*
X128748404Y-39695476D01*
X128796023Y-39885952D01*
X128796023Y-40028809D01*
X128748404Y-40219285D01*
X128700785Y-40314523D01*
X128605547Y-40409761D01*
X128462690Y-40457380D01*
X128224595Y-40457380D01*
X129605547Y-40409761D02*
X129510309Y-40457380D01*
X129319833Y-40457380D01*
X129224595Y-40409761D01*
X129176976Y-40314523D01*
X129176976Y-39933571D01*
X129224595Y-39838333D01*
X129319833Y-39790714D01*
X129510309Y-39790714D01*
X129605547Y-39838333D01*
X129653166Y-39933571D01*
X129653166Y-40028809D01*
X129176976Y-40124047D01*
X130510309Y-40457380D02*
X130510309Y-39933571D01*
X130462690Y-39838333D01*
X130367452Y-39790714D01*
X130176976Y-39790714D01*
X130081738Y-39838333D01*
X130510309Y-40409761D02*
X130415071Y-40457380D01*
X130176976Y-40457380D01*
X130081738Y-40409761D01*
X130034119Y-40314523D01*
X130034119Y-40219285D01*
X130081738Y-40124047D01*
X130176976Y-40076428D01*
X130415071Y-40076428D01*
X130510309Y-40028809D01*
X131415071Y-40457380D02*
X131415071Y-39457380D01*
X131415071Y-40409761D02*
X131319833Y-40457380D01*
X131129357Y-40457380D01*
X131034119Y-40409761D01*
X130986500Y-40362142D01*
X130938880Y-40266904D01*
X130938880Y-39981190D01*
X130986500Y-39885952D01*
X131034119Y-39838333D01*
X131129357Y-39790714D01*
X131319833Y-39790714D01*
X131415071Y-39838333D01*
X132510309Y-39457380D02*
X133081738Y-39457380D01*
X132796023Y-40457380D02*
X132796023Y-39457380D01*
X133796023Y-40409761D02*
X133700785Y-40457380D01*
X133510309Y-40457380D01*
X133415071Y-40409761D01*
X133367452Y-40314523D01*
X133367452Y-39933571D01*
X133415071Y-39838333D01*
X133510309Y-39790714D01*
X133700785Y-39790714D01*
X133796023Y-39838333D01*
X133843642Y-39933571D01*
X133843642Y-40028809D01*
X133367452Y-40124047D01*
X134224595Y-40409761D02*
X134319833Y-40457380D01*
X134510309Y-40457380D01*
X134605547Y-40409761D01*
X134653166Y-40314523D01*
X134653166Y-40266904D01*
X134605547Y-40171666D01*
X134510309Y-40124047D01*
X134367452Y-40124047D01*
X134272214Y-40076428D01*
X134224595Y-39981190D01*
X134224595Y-39933571D01*
X134272214Y-39838333D01*
X134367452Y-39790714D01*
X134510309Y-39790714D01*
X134605547Y-39838333D01*
X134938880Y-39790714D02*
X135319833Y-39790714D01*
X135081738Y-39457380D02*
X135081738Y-40314523D01*
X135129357Y-40409761D01*
X135224595Y-40457380D01*
X135319833Y-40457380D01*
X125349000Y-43180000D02*
X124714000Y-43180000D01*
X125349000Y-41275000D02*
X125349000Y-43180000D01*
X126619000Y-41275000D02*
X125349000Y-41275000D01*
X126619000Y-43180000D02*
X126619000Y-41275000D01*
X127254000Y-43180000D02*
X126619000Y-43180000D01*
X127254000Y-43815000D02*
X127254000Y-43180000D01*
X124714000Y-43815000D02*
X127254000Y-43815000D01*
X124714000Y-43180000D02*
X124714000Y-43815000D01*
X127254000Y-40640000D02*
X124714000Y-40640000D01*
X127254000Y-40005000D02*
X127254000Y-40640000D01*
X126619000Y-40005000D02*
X127254000Y-40005000D01*
X126619000Y-39370000D02*
X126619000Y-40005000D01*
X125349000Y-39370000D02*
X126619000Y-39370000D01*
X125349000Y-40005000D02*
X125349000Y-39370000D01*
X124714000Y-40005000D02*
X125349000Y-40005000D01*
X124714000Y-40640000D02*
X124714000Y-40005000D01*
X208986380Y-78977857D02*
X208510190Y-79311190D01*
X208986380Y-79549285D02*
X207986380Y-79549285D01*
X207986380Y-79168333D01*
X208034000Y-79073095D01*
X208081619Y-79025476D01*
X208176857Y-78977857D01*
X208319714Y-78977857D01*
X208414952Y-79025476D01*
X208462571Y-79073095D01*
X208510190Y-79168333D01*
X208510190Y-79549285D01*
X207986380Y-78358809D02*
X207986380Y-78168333D01*
X208034000Y-78073095D01*
X208129238Y-77977857D01*
X208319714Y-77930238D01*
X208653047Y-77930238D01*
X208843523Y-77977857D01*
X208938761Y-78073095D01*
X208986380Y-78168333D01*
X208986380Y-78358809D01*
X208938761Y-78454047D01*
X208843523Y-78549285D01*
X208653047Y-78596904D01*
X208319714Y-78596904D01*
X208129238Y-78549285D01*
X208034000Y-78454047D01*
X207986380Y-78358809D01*
X208986380Y-77501666D02*
X207986380Y-77501666D01*
X208700666Y-77168333D01*
X207986380Y-76835000D01*
X208986380Y-76835000D01*
X209081619Y-76596904D02*
X209081619Y-75835000D01*
X208462571Y-75596904D02*
X208462571Y-75263571D01*
X208986380Y-75120714D02*
X208986380Y-75596904D01*
X207986380Y-75596904D01*
X207986380Y-75120714D01*
X208986380Y-74692142D02*
X207986380Y-74692142D01*
X208986380Y-74120714D01*
X207986380Y-74120714D01*
X208986380Y-68524047D02*
X208510190Y-68857380D01*
X208986380Y-69095476D02*
X207986380Y-69095476D01*
X207986380Y-68714523D01*
X208034000Y-68619285D01*
X208081619Y-68571666D01*
X208176857Y-68524047D01*
X208319714Y-68524047D01*
X208414952Y-68571666D01*
X208462571Y-68619285D01*
X208510190Y-68714523D01*
X208510190Y-69095476D01*
X207986380Y-67905000D02*
X207986380Y-67714523D01*
X208034000Y-67619285D01*
X208129238Y-67524047D01*
X208319714Y-67476428D01*
X208653047Y-67476428D01*
X208843523Y-67524047D01*
X208938761Y-67619285D01*
X208986380Y-67714523D01*
X208986380Y-67905000D01*
X208938761Y-68000238D01*
X208843523Y-68095476D01*
X208653047Y-68143095D01*
X208319714Y-68143095D01*
X208129238Y-68095476D01*
X208034000Y-68000238D01*
X207986380Y-67905000D01*
X208986380Y-67047857D02*
X207986380Y-67047857D01*
X208700666Y-66714523D01*
X207986380Y-66381190D01*
X208986380Y-66381190D01*
X209081619Y-66143095D02*
X209081619Y-65381190D01*
X208462571Y-64809761D02*
X208510190Y-64666904D01*
X208557809Y-64619285D01*
X208653047Y-64571666D01*
X208795904Y-64571666D01*
X208891142Y-64619285D01*
X208938761Y-64666904D01*
X208986380Y-64762142D01*
X208986380Y-65143095D01*
X207986380Y-65143095D01*
X207986380Y-64809761D01*
X208034000Y-64714523D01*
X208081619Y-64666904D01*
X208176857Y-64619285D01*
X208272095Y-64619285D01*
X208367333Y-64666904D01*
X208414952Y-64714523D01*
X208462571Y-64809761D01*
X208462571Y-65143095D01*
X208700666Y-64190714D02*
X208700666Y-63714523D01*
X208986380Y-64285952D02*
X207986380Y-63952619D01*
X208986380Y-63619285D01*
X208986380Y-63285952D02*
X207986380Y-63285952D01*
X208986380Y-62714523D01*
X207986380Y-62714523D01*
X208986380Y-62238333D02*
X207986380Y-62238333D01*
X208986380Y-61666904D02*
X208414952Y-62095476D01*
X207986380Y-61666904D02*
X208557809Y-62238333D01*
X208462571Y-57046428D02*
X208462571Y-57379761D01*
X208986380Y-57379761D02*
X207986380Y-57379761D01*
X207986380Y-56903571D01*
X207986380Y-56522619D02*
X208795904Y-56522619D01*
X208891142Y-56475000D01*
X208938761Y-56427380D01*
X208986380Y-56332142D01*
X208986380Y-56141666D01*
X208938761Y-56046428D01*
X208891142Y-55998809D01*
X208795904Y-55951190D01*
X207986380Y-55951190D01*
X208986380Y-55475000D02*
X207986380Y-55475000D01*
X208986380Y-54903571D01*
X207986380Y-54903571D01*
X208891142Y-53855952D02*
X208938761Y-53903571D01*
X208986380Y-54046428D01*
X208986380Y-54141666D01*
X208938761Y-54284523D01*
X208843523Y-54379761D01*
X208748285Y-54427380D01*
X208557809Y-54475000D01*
X208414952Y-54475000D01*
X208224476Y-54427380D01*
X208129238Y-54379761D01*
X208034000Y-54284523D01*
X207986380Y-54141666D01*
X207986380Y-54046428D01*
X208034000Y-53903571D01*
X208081619Y-53855952D01*
X207986380Y-53570238D02*
X207986380Y-52998809D01*
X208986380Y-53284523D02*
X207986380Y-53284523D01*
X208986380Y-52665476D02*
X207986380Y-52665476D01*
X207986380Y-51998809D02*
X207986380Y-51808333D01*
X208034000Y-51713095D01*
X208129238Y-51617857D01*
X208319714Y-51570238D01*
X208653047Y-51570238D01*
X208843523Y-51617857D01*
X208938761Y-51713095D01*
X208986380Y-51808333D01*
X208986380Y-51998809D01*
X208938761Y-52094047D01*
X208843523Y-52189285D01*
X208653047Y-52236904D01*
X208319714Y-52236904D01*
X208129238Y-52189285D01*
X208034000Y-52094047D01*
X207986380Y-51998809D01*
X208986380Y-51141666D02*
X207986380Y-51141666D01*
X208986380Y-50570238D01*
X207986380Y-50570238D01*
X167711619Y-28392380D02*
X167378285Y-27916190D01*
X167140190Y-28392380D02*
X167140190Y-27392380D01*
X167521142Y-27392380D01*
X167616380Y-27440000D01*
X167664000Y-27487619D01*
X167711619Y-27582857D01*
X167711619Y-27725714D01*
X167664000Y-27820952D01*
X167616380Y-27868571D01*
X167521142Y-27916190D01*
X167140190Y-27916190D01*
X168140190Y-27868571D02*
X168473523Y-27868571D01*
X168616380Y-28392380D02*
X168140190Y-28392380D01*
X168140190Y-27392380D01*
X168616380Y-27392380D01*
X168997333Y-28344761D02*
X169140190Y-28392380D01*
X169378285Y-28392380D01*
X169473523Y-28344761D01*
X169521142Y-28297142D01*
X169568761Y-28201904D01*
X169568761Y-28106666D01*
X169521142Y-28011428D01*
X169473523Y-27963809D01*
X169378285Y-27916190D01*
X169187809Y-27868571D01*
X169092571Y-27820952D01*
X169044952Y-27773333D01*
X168997333Y-27678095D01*
X168997333Y-27582857D01*
X169044952Y-27487619D01*
X169092571Y-27440000D01*
X169187809Y-27392380D01*
X169425904Y-27392380D01*
X169568761Y-27440000D01*
X169997333Y-27868571D02*
X170330666Y-27868571D01*
X170473523Y-28392380D02*
X169997333Y-28392380D01*
X169997333Y-27392380D01*
X170473523Y-27392380D01*
X170759238Y-27392380D02*
X171330666Y-27392380D01*
X171044952Y-28392380D02*
X171044952Y-27392380D01*
X160179000Y-27392380D02*
X160417095Y-28392380D01*
X160607571Y-27678095D01*
X160798047Y-28392380D01*
X161036142Y-27392380D01*
X161988523Y-28392380D02*
X161655190Y-27916190D01*
X161417095Y-28392380D02*
X161417095Y-27392380D01*
X161798047Y-27392380D01*
X161893285Y-27440000D01*
X161940904Y-27487619D01*
X161988523Y-27582857D01*
X161988523Y-27725714D01*
X161940904Y-27820952D01*
X161893285Y-27868571D01*
X161798047Y-27916190D01*
X161417095Y-27916190D01*
X162417095Y-28392380D02*
X162417095Y-27392380D01*
X162750428Y-27392380D02*
X163321857Y-27392380D01*
X163036142Y-28392380D02*
X163036142Y-27392380D01*
X163655190Y-27868571D02*
X163988523Y-27868571D01*
X164131380Y-28392380D02*
X163655190Y-28392380D01*
X163655190Y-27392380D01*
X164131380Y-27392380D01*
X168068761Y-35377380D02*
X168068761Y-34377380D01*
X168640190Y-35377380D01*
X168640190Y-34377380D01*
X169116380Y-35377380D02*
X169116380Y-34377380D01*
X169449714Y-35091666D01*
X169783047Y-34377380D01*
X169783047Y-35377380D01*
X170259238Y-35377380D02*
X170259238Y-34377380D01*
X161155190Y-35377380D02*
X161155190Y-34377380D01*
X162202809Y-35377380D02*
X161869476Y-34901190D01*
X161631380Y-35377380D02*
X161631380Y-34377380D01*
X162012333Y-34377380D01*
X162107571Y-34425000D01*
X162155190Y-34472619D01*
X162202809Y-34567857D01*
X162202809Y-34710714D01*
X162155190Y-34805952D01*
X162107571Y-34853571D01*
X162012333Y-34901190D01*
X161631380Y-34901190D01*
X163298047Y-35472619D02*
X163202809Y-35425000D01*
X163107571Y-35329761D01*
X162964714Y-35186904D01*
X162869476Y-35139285D01*
X162774238Y-35139285D01*
X162821857Y-35377380D02*
X162726619Y-35329761D01*
X162631380Y-35234523D01*
X162583761Y-35044047D01*
X162583761Y-34710714D01*
X162631380Y-34520238D01*
X162726619Y-34425000D01*
X162821857Y-34377380D01*
X163012333Y-34377380D01*
X163107571Y-34425000D01*
X163202809Y-34520238D01*
X163250428Y-34710714D01*
X163250428Y-35044047D01*
X163202809Y-35234523D01*
X163107571Y-35329761D01*
X163012333Y-35377380D01*
X162821857Y-35377380D01*
X212796619Y-45537380D02*
X212463285Y-45061190D01*
X212225190Y-45537380D02*
X212225190Y-44537380D01*
X212606142Y-44537380D01*
X212701380Y-44585000D01*
X212749000Y-44632619D01*
X212796619Y-44727857D01*
X212796619Y-44870714D01*
X212749000Y-44965952D01*
X212701380Y-45013571D01*
X212606142Y-45061190D01*
X212225190Y-45061190D01*
X213225190Y-45013571D02*
X213558523Y-45013571D01*
X213701380Y-45537380D02*
X213225190Y-45537380D01*
X213225190Y-44537380D01*
X213701380Y-44537380D01*
X214082333Y-45489761D02*
X214225190Y-45537380D01*
X214463285Y-45537380D01*
X214558523Y-45489761D01*
X214606142Y-45442142D01*
X214653761Y-45346904D01*
X214653761Y-45251666D01*
X214606142Y-45156428D01*
X214558523Y-45108809D01*
X214463285Y-45061190D01*
X214272809Y-45013571D01*
X214177571Y-44965952D01*
X214129952Y-44918333D01*
X214082333Y-44823095D01*
X214082333Y-44727857D01*
X214129952Y-44632619D01*
X214177571Y-44585000D01*
X214272809Y-44537380D01*
X214510904Y-44537380D01*
X214653761Y-44585000D01*
X215082333Y-45013571D02*
X215415666Y-45013571D01*
X215558523Y-45537380D02*
X215082333Y-45537380D01*
X215082333Y-44537380D01*
X215558523Y-44537380D01*
X215844238Y-44537380D02*
X216415666Y-44537380D01*
X216129952Y-45537380D02*
X216129952Y-44537380D01*
X203374714Y-66206666D02*
X203850904Y-66206666D01*
X203279476Y-66492380D02*
X203612809Y-65492380D01*
X203946142Y-66492380D01*
X204469952Y-65492380D02*
X204565190Y-65492380D01*
X204660428Y-65540000D01*
X204708047Y-65587619D01*
X204755666Y-65682857D01*
X204803285Y-65873333D01*
X204803285Y-66111428D01*
X204755666Y-66301904D01*
X204708047Y-66397142D01*
X204660428Y-66444761D01*
X204565190Y-66492380D01*
X204469952Y-66492380D01*
X204374714Y-66444761D01*
X204327095Y-66397142D01*
X204279476Y-66301904D01*
X204231857Y-66111428D01*
X204231857Y-65873333D01*
X204279476Y-65682857D01*
X204327095Y-65587619D01*
X204374714Y-65540000D01*
X204469952Y-65492380D01*
X189404714Y-66206666D02*
X189880904Y-66206666D01*
X189309476Y-66492380D02*
X189642809Y-65492380D01*
X189976142Y-66492380D01*
X190261857Y-65587619D02*
X190309476Y-65540000D01*
X190404714Y-65492380D01*
X190642809Y-65492380D01*
X190738047Y-65540000D01*
X190785666Y-65587619D01*
X190833285Y-65682857D01*
X190833285Y-65778095D01*
X190785666Y-65920952D01*
X190214238Y-66492380D01*
X190833285Y-66492380D01*
X182419714Y-66206666D02*
X182895904Y-66206666D01*
X182324476Y-66492380D02*
X182657809Y-65492380D01*
X182991142Y-66492380D01*
X183229238Y-65492380D02*
X183848285Y-65492380D01*
X183514952Y-65873333D01*
X183657809Y-65873333D01*
X183753047Y-65920952D01*
X183800666Y-65968571D01*
X183848285Y-66063809D01*
X183848285Y-66301904D01*
X183800666Y-66397142D01*
X183753047Y-66444761D01*
X183657809Y-66492380D01*
X183372095Y-66492380D01*
X183276857Y-66444761D01*
X183229238Y-66397142D01*
X196389714Y-66206666D02*
X196865904Y-66206666D01*
X196294476Y-66492380D02*
X196627809Y-65492380D01*
X196961142Y-66492380D01*
X197818285Y-66492380D02*
X197246857Y-66492380D01*
X197532571Y-66492380D02*
X197532571Y-65492380D01*
X197437333Y-65635238D01*
X197342095Y-65730476D01*
X197246857Y-65778095D01*
X174799714Y-66206666D02*
X175275904Y-66206666D01*
X174704476Y-66492380D02*
X175037809Y-65492380D01*
X175371142Y-66492380D01*
X176133047Y-65825714D02*
X176133047Y-66492380D01*
X175894952Y-65444761D02*
X175656857Y-66159047D01*
X176275904Y-66159047D01*
X160829714Y-66206666D02*
X161305904Y-66206666D01*
X160734476Y-66492380D02*
X161067809Y-65492380D01*
X161401142Y-66492380D01*
X162163047Y-65492380D02*
X161972571Y-65492380D01*
X161877333Y-65540000D01*
X161829714Y-65587619D01*
X161734476Y-65730476D01*
X161686857Y-65920952D01*
X161686857Y-66301904D01*
X161734476Y-66397142D01*
X161782095Y-66444761D01*
X161877333Y-66492380D01*
X162067809Y-66492380D01*
X162163047Y-66444761D01*
X162210666Y-66397142D01*
X162258285Y-66301904D01*
X162258285Y-66063809D01*
X162210666Y-65968571D01*
X162163047Y-65920952D01*
X162067809Y-65873333D01*
X161877333Y-65873333D01*
X161782095Y-65920952D01*
X161734476Y-65968571D01*
X161686857Y-66063809D01*
X153844714Y-66206666D02*
X154320904Y-66206666D01*
X153749476Y-66492380D02*
X154082809Y-65492380D01*
X154416142Y-66492380D01*
X154654238Y-65492380D02*
X155320904Y-65492380D01*
X154892333Y-66492380D01*
X167814714Y-66206666D02*
X168290904Y-66206666D01*
X167719476Y-66492380D02*
X168052809Y-65492380D01*
X168386142Y-66492380D01*
X169195666Y-65492380D02*
X168719476Y-65492380D01*
X168671857Y-65968571D01*
X168719476Y-65920952D01*
X168814714Y-65873333D01*
X169052809Y-65873333D01*
X169148047Y-65920952D01*
X169195666Y-65968571D01*
X169243285Y-66063809D01*
X169243285Y-66301904D01*
X169195666Y-66397142D01*
X169148047Y-66444761D01*
X169052809Y-66492380D01*
X168814714Y-66492380D01*
X168719476Y-66444761D01*
X168671857Y-66397142D01*
X203374714Y-54776666D02*
X203850904Y-54776666D01*
X203279476Y-55062380D02*
X203612809Y-54062380D01*
X203946142Y-55062380D01*
X204422333Y-54490952D02*
X204327095Y-54443333D01*
X204279476Y-54395714D01*
X204231857Y-54300476D01*
X204231857Y-54252857D01*
X204279476Y-54157619D01*
X204327095Y-54110000D01*
X204422333Y-54062380D01*
X204612809Y-54062380D01*
X204708047Y-54110000D01*
X204755666Y-54157619D01*
X204803285Y-54252857D01*
X204803285Y-54300476D01*
X204755666Y-54395714D01*
X204708047Y-54443333D01*
X204612809Y-54490952D01*
X204422333Y-54490952D01*
X204327095Y-54538571D01*
X204279476Y-54586190D01*
X204231857Y-54681428D01*
X204231857Y-54871904D01*
X204279476Y-54967142D01*
X204327095Y-55014761D01*
X204422333Y-55062380D01*
X204612809Y-55062380D01*
X204708047Y-55014761D01*
X204755666Y-54967142D01*
X204803285Y-54871904D01*
X204803285Y-54681428D01*
X204755666Y-54586190D01*
X204708047Y-54538571D01*
X204612809Y-54490952D01*
X196389714Y-54776666D02*
X196865904Y-54776666D01*
X196294476Y-55062380D02*
X196627809Y-54062380D01*
X196961142Y-55062380D01*
X197342095Y-55062380D02*
X197532571Y-55062380D01*
X197627809Y-55014761D01*
X197675428Y-54967142D01*
X197770666Y-54824285D01*
X197818285Y-54633809D01*
X197818285Y-54252857D01*
X197770666Y-54157619D01*
X197723047Y-54110000D01*
X197627809Y-54062380D01*
X197437333Y-54062380D01*
X197342095Y-54110000D01*
X197294476Y-54157619D01*
X197246857Y-54252857D01*
X197246857Y-54490952D01*
X197294476Y-54586190D01*
X197342095Y-54633809D01*
X197437333Y-54681428D01*
X197627809Y-54681428D01*
X197723047Y-54633809D01*
X197770666Y-54586190D01*
X197818285Y-54490952D01*
X188928523Y-54776666D02*
X189404714Y-54776666D01*
X188833285Y-55062380D02*
X189166619Y-54062380D01*
X189499952Y-55062380D01*
X190357095Y-55062380D02*
X189785666Y-55062380D01*
X190071380Y-55062380D02*
X190071380Y-54062380D01*
X189976142Y-54205238D01*
X189880904Y-54300476D01*
X189785666Y-54348095D01*
X190976142Y-54062380D02*
X191071380Y-54062380D01*
X191166619Y-54110000D01*
X191214238Y-54157619D01*
X191261857Y-54252857D01*
X191309476Y-54443333D01*
X191309476Y-54681428D01*
X191261857Y-54871904D01*
X191214238Y-54967142D01*
X191166619Y-55014761D01*
X191071380Y-55062380D01*
X190976142Y-55062380D01*
X190880904Y-55014761D01*
X190833285Y-54967142D01*
X190785666Y-54871904D01*
X190738047Y-54681428D01*
X190738047Y-54443333D01*
X190785666Y-54252857D01*
X190833285Y-54157619D01*
X190880904Y-54110000D01*
X190976142Y-54062380D01*
X181943523Y-54776666D02*
X182419714Y-54776666D01*
X181848285Y-55062380D02*
X182181619Y-54062380D01*
X182514952Y-55062380D01*
X183372095Y-55062380D02*
X182800666Y-55062380D01*
X183086380Y-55062380D02*
X183086380Y-54062380D01*
X182991142Y-54205238D01*
X182895904Y-54300476D01*
X182800666Y-54348095D01*
X184324476Y-55062380D02*
X183753047Y-55062380D01*
X184038761Y-55062380D02*
X184038761Y-54062380D01*
X183943523Y-54205238D01*
X183848285Y-54300476D01*
X183753047Y-54348095D01*
X174323523Y-54776666D02*
X174799714Y-54776666D01*
X174228285Y-55062380D02*
X174561619Y-54062380D01*
X174894952Y-55062380D01*
X175752095Y-55062380D02*
X175180666Y-55062380D01*
X175466380Y-55062380D02*
X175466380Y-54062380D01*
X175371142Y-54205238D01*
X175275904Y-54300476D01*
X175180666Y-54348095D01*
X176133047Y-54157619D02*
X176180666Y-54110000D01*
X176275904Y-54062380D01*
X176514000Y-54062380D01*
X176609238Y-54110000D01*
X176656857Y-54157619D01*
X176704476Y-54252857D01*
X176704476Y-54348095D01*
X176656857Y-54490952D01*
X176085428Y-55062380D01*
X176704476Y-55062380D01*
X167338523Y-54776666D02*
X167814714Y-54776666D01*
X167243285Y-55062380D02*
X167576619Y-54062380D01*
X167909952Y-55062380D01*
X168767095Y-55062380D02*
X168195666Y-55062380D01*
X168481380Y-55062380D02*
X168481380Y-54062380D01*
X168386142Y-54205238D01*
X168290904Y-54300476D01*
X168195666Y-54348095D01*
X169100428Y-54062380D02*
X169719476Y-54062380D01*
X169386142Y-54443333D01*
X169529000Y-54443333D01*
X169624238Y-54490952D01*
X169671857Y-54538571D01*
X169719476Y-54633809D01*
X169719476Y-54871904D01*
X169671857Y-54967142D01*
X169624238Y-55014761D01*
X169529000Y-55062380D01*
X169243285Y-55062380D01*
X169148047Y-55014761D01*
X169100428Y-54967142D01*
X160353523Y-54776666D02*
X160829714Y-54776666D01*
X160258285Y-55062380D02*
X160591619Y-54062380D01*
X160924952Y-55062380D01*
X161782095Y-55062380D02*
X161210666Y-55062380D01*
X161496380Y-55062380D02*
X161496380Y-54062380D01*
X161401142Y-54205238D01*
X161305904Y-54300476D01*
X161210666Y-54348095D01*
X162639238Y-54395714D02*
X162639238Y-55062380D01*
X162401142Y-54014761D02*
X162163047Y-54729047D01*
X162782095Y-54729047D01*
X153368523Y-54776666D02*
X153844714Y-54776666D01*
X153273285Y-55062380D02*
X153606619Y-54062380D01*
X153939952Y-55062380D01*
X154797095Y-55062380D02*
X154225666Y-55062380D01*
X154511380Y-55062380D02*
X154511380Y-54062380D01*
X154416142Y-54205238D01*
X154320904Y-54300476D01*
X154225666Y-54348095D01*
X155701857Y-54062380D02*
X155225666Y-54062380D01*
X155178047Y-54538571D01*
X155225666Y-54490952D01*
X155320904Y-54443333D01*
X155559000Y-54443333D01*
X155654238Y-54490952D01*
X155701857Y-54538571D01*
X155749476Y-54633809D01*
X155749476Y-54871904D01*
X155701857Y-54967142D01*
X155654238Y-55014761D01*
X155559000Y-55062380D01*
X155320904Y-55062380D01*
X155225666Y-55014761D01*
X155178047Y-54967142D01*
X203350904Y-43632380D02*
X203350904Y-42632380D01*
X203589000Y-42632380D01*
X203731857Y-42680000D01*
X203827095Y-42775238D01*
X203874714Y-42870476D01*
X203922333Y-43060952D01*
X203922333Y-43203809D01*
X203874714Y-43394285D01*
X203827095Y-43489523D01*
X203731857Y-43584761D01*
X203589000Y-43632380D01*
X203350904Y-43632380D01*
X204541380Y-42632380D02*
X204636619Y-42632380D01*
X204731857Y-42680000D01*
X204779476Y-42727619D01*
X204827095Y-42822857D01*
X204874714Y-43013333D01*
X204874714Y-43251428D01*
X204827095Y-43441904D01*
X204779476Y-43537142D01*
X204731857Y-43584761D01*
X204636619Y-43632380D01*
X204541380Y-43632380D01*
X204446142Y-43584761D01*
X204398523Y-43537142D01*
X204350904Y-43441904D01*
X204303285Y-43251428D01*
X204303285Y-43013333D01*
X204350904Y-42822857D01*
X204398523Y-42727619D01*
X204446142Y-42680000D01*
X204541380Y-42632380D01*
X196365904Y-43632380D02*
X196365904Y-42632380D01*
X196604000Y-42632380D01*
X196746857Y-42680000D01*
X196842095Y-42775238D01*
X196889714Y-42870476D01*
X196937333Y-43060952D01*
X196937333Y-43203809D01*
X196889714Y-43394285D01*
X196842095Y-43489523D01*
X196746857Y-43584761D01*
X196604000Y-43632380D01*
X196365904Y-43632380D01*
X197889714Y-43632380D02*
X197318285Y-43632380D01*
X197604000Y-43632380D02*
X197604000Y-42632380D01*
X197508761Y-42775238D01*
X197413523Y-42870476D01*
X197318285Y-42918095D01*
X189380904Y-43632380D02*
X189380904Y-42632380D01*
X189619000Y-42632380D01*
X189761857Y-42680000D01*
X189857095Y-42775238D01*
X189904714Y-42870476D01*
X189952333Y-43060952D01*
X189952333Y-43203809D01*
X189904714Y-43394285D01*
X189857095Y-43489523D01*
X189761857Y-43584761D01*
X189619000Y-43632380D01*
X189380904Y-43632380D01*
X190333285Y-42727619D02*
X190380904Y-42680000D01*
X190476142Y-42632380D01*
X190714238Y-42632380D01*
X190809476Y-42680000D01*
X190857095Y-42727619D01*
X190904714Y-42822857D01*
X190904714Y-42918095D01*
X190857095Y-43060952D01*
X190285666Y-43632380D01*
X190904714Y-43632380D01*
X182395904Y-43632380D02*
X182395904Y-42632380D01*
X182634000Y-42632380D01*
X182776857Y-42680000D01*
X182872095Y-42775238D01*
X182919714Y-42870476D01*
X182967333Y-43060952D01*
X182967333Y-43203809D01*
X182919714Y-43394285D01*
X182872095Y-43489523D01*
X182776857Y-43584761D01*
X182634000Y-43632380D01*
X182395904Y-43632380D01*
X183300666Y-42632380D02*
X183919714Y-42632380D01*
X183586380Y-43013333D01*
X183729238Y-43013333D01*
X183824476Y-43060952D01*
X183872095Y-43108571D01*
X183919714Y-43203809D01*
X183919714Y-43441904D01*
X183872095Y-43537142D01*
X183824476Y-43584761D01*
X183729238Y-43632380D01*
X183443523Y-43632380D01*
X183348285Y-43584761D01*
X183300666Y-43537142D01*
X174775904Y-43632380D02*
X174775904Y-42632380D01*
X175014000Y-42632380D01*
X175156857Y-42680000D01*
X175252095Y-42775238D01*
X175299714Y-42870476D01*
X175347333Y-43060952D01*
X175347333Y-43203809D01*
X175299714Y-43394285D01*
X175252095Y-43489523D01*
X175156857Y-43584761D01*
X175014000Y-43632380D01*
X174775904Y-43632380D01*
X176204476Y-42965714D02*
X176204476Y-43632380D01*
X175966380Y-42584761D02*
X175728285Y-43299047D01*
X176347333Y-43299047D01*
X167790904Y-43632380D02*
X167790904Y-42632380D01*
X168029000Y-42632380D01*
X168171857Y-42680000D01*
X168267095Y-42775238D01*
X168314714Y-42870476D01*
X168362333Y-43060952D01*
X168362333Y-43203809D01*
X168314714Y-43394285D01*
X168267095Y-43489523D01*
X168171857Y-43584761D01*
X168029000Y-43632380D01*
X167790904Y-43632380D01*
X169267095Y-42632380D02*
X168790904Y-42632380D01*
X168743285Y-43108571D01*
X168790904Y-43060952D01*
X168886142Y-43013333D01*
X169124238Y-43013333D01*
X169219476Y-43060952D01*
X169267095Y-43108571D01*
X169314714Y-43203809D01*
X169314714Y-43441904D01*
X169267095Y-43537142D01*
X169219476Y-43584761D01*
X169124238Y-43632380D01*
X168886142Y-43632380D01*
X168790904Y-43584761D01*
X168743285Y-43537142D01*
X160805904Y-43632380D02*
X160805904Y-42632380D01*
X161044000Y-42632380D01*
X161186857Y-42680000D01*
X161282095Y-42775238D01*
X161329714Y-42870476D01*
X161377333Y-43060952D01*
X161377333Y-43203809D01*
X161329714Y-43394285D01*
X161282095Y-43489523D01*
X161186857Y-43584761D01*
X161044000Y-43632380D01*
X160805904Y-43632380D01*
X162234476Y-42632380D02*
X162044000Y-42632380D01*
X161948761Y-42680000D01*
X161901142Y-42727619D01*
X161805904Y-42870476D01*
X161758285Y-43060952D01*
X161758285Y-43441904D01*
X161805904Y-43537142D01*
X161853523Y-43584761D01*
X161948761Y-43632380D01*
X162139238Y-43632380D01*
X162234476Y-43584761D01*
X162282095Y-43537142D01*
X162329714Y-43441904D01*
X162329714Y-43203809D01*
X162282095Y-43108571D01*
X162234476Y-43060952D01*
X162139238Y-43013333D01*
X161948761Y-43013333D01*
X161853523Y-43060952D01*
X161805904Y-43108571D01*
X161758285Y-43203809D01*
X153820904Y-43632380D02*
X153820904Y-42632380D01*
X154059000Y-42632380D01*
X154201857Y-42680000D01*
X154297095Y-42775238D01*
X154344714Y-42870476D01*
X154392333Y-43060952D01*
X154392333Y-43203809D01*
X154344714Y-43394285D01*
X154297095Y-43489523D01*
X154201857Y-43584761D01*
X154059000Y-43632380D01*
X153820904Y-43632380D01*
X154725666Y-42632380D02*
X155392333Y-42632380D01*
X154963761Y-43632380D01*
X151654000Y-28392380D02*
X151654000Y-27392380D01*
X152320666Y-27392380D02*
X152511142Y-27392380D01*
X152606380Y-27440000D01*
X152701619Y-27535238D01*
X152749238Y-27725714D01*
X152749238Y-28059047D01*
X152701619Y-28249523D01*
X152606380Y-28344761D01*
X152511142Y-28392380D01*
X152320666Y-28392380D01*
X152225428Y-28344761D01*
X152130190Y-28249523D01*
X152082571Y-28059047D01*
X152082571Y-27725714D01*
X152130190Y-27535238D01*
X152225428Y-27440000D01*
X152320666Y-27392380D01*
X153701619Y-28392380D02*
X153130190Y-28392380D01*
X153415904Y-28392380D02*
X153415904Y-27392380D01*
X153320666Y-27535238D01*
X153225428Y-27630476D01*
X153130190Y-27678095D01*
X144669000Y-28392380D02*
X144669000Y-27392380D01*
X145335666Y-27392380D02*
X145526142Y-27392380D01*
X145621380Y-27440000D01*
X145716619Y-27535238D01*
X145764238Y-27725714D01*
X145764238Y-28059047D01*
X145716619Y-28249523D01*
X145621380Y-28344761D01*
X145526142Y-28392380D01*
X145335666Y-28392380D01*
X145240428Y-28344761D01*
X145145190Y-28249523D01*
X145097571Y-28059047D01*
X145097571Y-27725714D01*
X145145190Y-27535238D01*
X145240428Y-27440000D01*
X145335666Y-27392380D01*
X146145190Y-27487619D02*
X146192809Y-27440000D01*
X146288047Y-27392380D01*
X146526142Y-27392380D01*
X146621380Y-27440000D01*
X146669000Y-27487619D01*
X146716619Y-27582857D01*
X146716619Y-27678095D01*
X146669000Y-27820952D01*
X146097571Y-28392380D01*
X146716619Y-28392380D01*
X136398285Y-27868571D02*
X136731619Y-27868571D01*
X136874476Y-28392380D02*
X136398285Y-28392380D01*
X136398285Y-27392380D01*
X136874476Y-27392380D01*
X137207809Y-27392380D02*
X137874476Y-28392380D01*
X137874476Y-27392380D02*
X137207809Y-28392380D01*
X138826857Y-28392380D02*
X138493523Y-27916190D01*
X138255428Y-28392380D02*
X138255428Y-27392380D01*
X138636380Y-27392380D01*
X138731619Y-27440000D01*
X138779238Y-27487619D01*
X138826857Y-27582857D01*
X138826857Y-27725714D01*
X138779238Y-27820952D01*
X138731619Y-27868571D01*
X138636380Y-27916190D01*
X138255428Y-27916190D01*
X139445904Y-27392380D02*
X139636380Y-27392380D01*
X139731619Y-27440000D01*
X139826857Y-27535238D01*
X139874476Y-27725714D01*
X139874476Y-28059047D01*
X139826857Y-28249523D01*
X139731619Y-28344761D01*
X139636380Y-28392380D01*
X139445904Y-28392380D01*
X139350666Y-28344761D01*
X139255428Y-28249523D01*
X139207809Y-28059047D01*
X139207809Y-27725714D01*
X139255428Y-27535238D01*
X139350666Y-27440000D01*
X139445904Y-27392380D01*
X140303047Y-28392380D02*
X140303047Y-27392380D01*
X140636380Y-28106666D01*
X140969714Y-27392380D01*
X140969714Y-28392380D01*
X130508523Y-27440000D02*
X130413285Y-27392380D01*
X130270428Y-27392380D01*
X130127571Y-27440000D01*
X130032333Y-27535238D01*
X129984714Y-27630476D01*
X129937095Y-27820952D01*
X129937095Y-27963809D01*
X129984714Y-28154285D01*
X130032333Y-28249523D01*
X130127571Y-28344761D01*
X130270428Y-28392380D01*
X130365666Y-28392380D01*
X130508523Y-28344761D01*
X130556142Y-28297142D01*
X130556142Y-27963809D01*
X130365666Y-27963809D01*
X130937095Y-28106666D02*
X131413285Y-28106666D01*
X130841857Y-28392380D02*
X131175190Y-27392380D01*
X131508523Y-28392380D01*
X131841857Y-28392380D02*
X131841857Y-27392380D01*
X132175190Y-28106666D01*
X132508523Y-27392380D01*
X132508523Y-28392380D01*
X132984714Y-27868571D02*
X133318047Y-27868571D01*
X133460904Y-28392380D02*
X132984714Y-28392380D01*
X132984714Y-27392380D01*
X133460904Y-27392380D01*
D11*
X131089714Y-78873333D02*
X131470666Y-78873333D01*
X131013523Y-79101904D02*
X131280190Y-78301904D01*
X131546857Y-79101904D01*
X131813523Y-79101904D02*
X131813523Y-78301904D01*
X132004000Y-78301904D01*
X132118285Y-78340000D01*
X132194476Y-78416190D01*
X132232571Y-78492380D01*
X132270666Y-78644761D01*
X132270666Y-78759047D01*
X132232571Y-78911428D01*
X132194476Y-78987619D01*
X132118285Y-79063809D01*
X132004000Y-79101904D01*
X131813523Y-79101904D01*
X132613523Y-79101904D02*
X132613523Y-78301904D01*
X132804000Y-78301904D01*
X132918285Y-78340000D01*
X132994476Y-78416190D01*
X133032571Y-78492380D01*
X133070666Y-78644761D01*
X133070666Y-78759047D01*
X133032571Y-78911428D01*
X132994476Y-78987619D01*
X132918285Y-79063809D01*
X132804000Y-79101904D01*
X132613523Y-79101904D01*
X133870666Y-79101904D02*
X133604000Y-78720952D01*
X133413523Y-79101904D02*
X133413523Y-78301904D01*
X133718285Y-78301904D01*
X133794476Y-78340000D01*
X133832571Y-78378095D01*
X133870666Y-78454285D01*
X133870666Y-78568571D01*
X133832571Y-78644761D01*
X133794476Y-78682857D01*
X133718285Y-78720952D01*
X133413523Y-78720952D01*
X134213523Y-78682857D02*
X134480190Y-78682857D01*
X134594476Y-79101904D02*
X134213523Y-79101904D01*
X134213523Y-78301904D01*
X134594476Y-78301904D01*
X134899238Y-79063809D02*
X135013523Y-79101904D01*
X135204000Y-79101904D01*
X135280190Y-79063809D01*
X135318285Y-79025714D01*
X135356380Y-78949523D01*
X135356380Y-78873333D01*
X135318285Y-78797142D01*
X135280190Y-78759047D01*
X135204000Y-78720952D01*
X135051619Y-78682857D01*
X134975428Y-78644761D01*
X134937333Y-78606666D01*
X134899238Y-78530476D01*
X134899238Y-78454285D01*
X134937333Y-78378095D01*
X134975428Y-78340000D01*
X135051619Y-78301904D01*
X135242095Y-78301904D01*
X135356380Y-78340000D01*
X135661142Y-79063809D02*
X135775428Y-79101904D01*
X135965904Y-79101904D01*
X136042095Y-79063809D01*
X136080190Y-79025714D01*
X136118285Y-78949523D01*
X136118285Y-78873333D01*
X136080190Y-78797142D01*
X136042095Y-78759047D01*
X135965904Y-78720952D01*
X135813523Y-78682857D01*
X135737333Y-78644761D01*
X135699238Y-78606666D01*
X135661142Y-78530476D01*
X135661142Y-78454285D01*
X135699238Y-78378095D01*
X135737333Y-78340000D01*
X135813523Y-78301904D01*
X136004000Y-78301904D01*
X136118285Y-78340000D01*
X126435000Y-79101904D02*
X126435000Y-78301904D01*
X126625476Y-78301904D01*
X126739761Y-78340000D01*
X126815952Y-78416190D01*
X126854047Y-78492380D01*
X126892142Y-78644761D01*
X126892142Y-78759047D01*
X126854047Y-78911428D01*
X126815952Y-78987619D01*
X126739761Y-79063809D01*
X126625476Y-79101904D01*
X126435000Y-79101904D01*
X127196904Y-78873333D02*
X127577857Y-78873333D01*
X127120714Y-79101904D02*
X127387380Y-78301904D01*
X127654047Y-79101904D01*
X127806428Y-78301904D02*
X128263571Y-78301904D01*
X128035000Y-79101904D02*
X128035000Y-78301904D01*
X128492142Y-78873333D02*
X128873095Y-78873333D01*
X128415952Y-79101904D02*
X128682619Y-78301904D01*
X128949285Y-79101904D01*
D10*
X182809238Y-86527142D02*
X182761619Y-86574761D01*
X182618761Y-86622380D01*
X182523523Y-86622380D01*
X182380666Y-86574761D01*
X182285428Y-86479523D01*
X182237809Y-86384285D01*
X182190190Y-86193809D01*
X182190190Y-86050952D01*
X182237809Y-85860476D01*
X182285428Y-85765238D01*
X182380666Y-85670000D01*
X182523523Y-85622380D01*
X182618761Y-85622380D01*
X182761619Y-85670000D01*
X182809238Y-85717619D01*
X183666380Y-85622380D02*
X183475904Y-85622380D01*
X183380666Y-85670000D01*
X183333047Y-85717619D01*
X183237809Y-85860476D01*
X183190190Y-86050952D01*
X183190190Y-86431904D01*
X183237809Y-86527142D01*
X183285428Y-86574761D01*
X183380666Y-86622380D01*
X183571142Y-86622380D01*
X183666380Y-86574761D01*
X183714000Y-86527142D01*
X183761619Y-86431904D01*
X183761619Y-86193809D01*
X183714000Y-86098571D01*
X183666380Y-86050952D01*
X183571142Y-86003333D01*
X183380666Y-86003333D01*
X183285428Y-86050952D01*
X183237809Y-86098571D01*
X183190190Y-86193809D01*
X184618761Y-85955714D02*
X184618761Y-86622380D01*
X184380666Y-85574761D02*
X184142571Y-86289047D01*
X184761619Y-86289047D01*
X186237809Y-86098571D02*
X186380666Y-86146190D01*
X186428285Y-86193809D01*
X186475904Y-86289047D01*
X186475904Y-86431904D01*
X186428285Y-86527142D01*
X186380666Y-86574761D01*
X186285428Y-86622380D01*
X185904476Y-86622380D01*
X185904476Y-85622380D01*
X186237809Y-85622380D01*
X186333047Y-85670000D01*
X186380666Y-85717619D01*
X186428285Y-85812857D01*
X186428285Y-85908095D01*
X186380666Y-86003333D01*
X186333047Y-86050952D01*
X186237809Y-86098571D01*
X185904476Y-86098571D01*
X187047333Y-86622380D02*
X186952095Y-86574761D01*
X186904476Y-86479523D01*
X186904476Y-85622380D01*
X187428285Y-86622380D02*
X187428285Y-85955714D01*
X187428285Y-85622380D02*
X187380666Y-85670000D01*
X187428285Y-85717619D01*
X187475904Y-85670000D01*
X187428285Y-85622380D01*
X187428285Y-85717619D01*
X187904476Y-85955714D02*
X187904476Y-86622380D01*
X187904476Y-86050952D02*
X187952095Y-86003333D01*
X188047333Y-85955714D01*
X188190190Y-85955714D01*
X188285428Y-86003333D01*
X188333047Y-86098571D01*
X188333047Y-86622380D01*
X188809238Y-86622380D02*
X188809238Y-85622380D01*
X188904476Y-86241428D02*
X189190190Y-86622380D01*
X189190190Y-85955714D02*
X188809238Y-86336666D01*
X189999714Y-86574761D02*
X189904476Y-86622380D01*
X189714000Y-86622380D01*
X189618761Y-86574761D01*
X189571142Y-86479523D01*
X189571142Y-86098571D01*
X189618761Y-86003333D01*
X189714000Y-85955714D01*
X189904476Y-85955714D01*
X189999714Y-86003333D01*
X190047333Y-86098571D01*
X190047333Y-86193809D01*
X189571142Y-86289047D01*
X190475904Y-85955714D02*
X190475904Y-86622380D01*
X190475904Y-86050952D02*
X190523523Y-86003333D01*
X190618761Y-85955714D01*
X190761619Y-85955714D01*
X190856857Y-86003333D01*
X190904476Y-86098571D01*
X190904476Y-86622380D01*
X191380666Y-86622380D02*
X191380666Y-85622380D01*
X191618761Y-85622380D01*
X191761619Y-85670000D01*
X191856857Y-85765238D01*
X191904476Y-85860476D01*
X191952095Y-86050952D01*
X191952095Y-86193809D01*
X191904476Y-86384285D01*
X191856857Y-86479523D01*
X191761619Y-86574761D01*
X191618761Y-86622380D01*
X191380666Y-86622380D01*
X192380666Y-86622380D02*
X192380666Y-85955714D01*
X192380666Y-85622380D02*
X192333047Y-85670000D01*
X192380666Y-85717619D01*
X192428285Y-85670000D01*
X192380666Y-85622380D01*
X192380666Y-85717619D01*
X193285428Y-86622380D02*
X193285428Y-86098571D01*
X193237809Y-86003333D01*
X193142571Y-85955714D01*
X192952095Y-85955714D01*
X192856857Y-86003333D01*
X193285428Y-86574761D02*
X193190190Y-86622380D01*
X192952095Y-86622380D01*
X192856857Y-86574761D01*
X192809238Y-86479523D01*
X192809238Y-86384285D01*
X192856857Y-86289047D01*
X192952095Y-86241428D01*
X193190190Y-86241428D01*
X193285428Y-86193809D01*
X194190190Y-85955714D02*
X194190190Y-86765238D01*
X194142571Y-86860476D01*
X194094952Y-86908095D01*
X193999714Y-86955714D01*
X193856857Y-86955714D01*
X193761619Y-86908095D01*
X194190190Y-86574761D02*
X194094952Y-86622380D01*
X193904476Y-86622380D01*
X193809238Y-86574761D01*
X193761619Y-86527142D01*
X193714000Y-86431904D01*
X193714000Y-86146190D01*
X193761619Y-86050952D01*
X193809238Y-86003333D01*
X193904476Y-85955714D01*
X194094952Y-85955714D01*
X194190190Y-86003333D01*
X182809238Y-87605714D02*
X182809238Y-88415238D01*
X182761619Y-88510476D01*
X182714000Y-88558095D01*
X182618761Y-88605714D01*
X182475904Y-88605714D01*
X182380666Y-88558095D01*
X182809238Y-88224761D02*
X182714000Y-88272380D01*
X182523523Y-88272380D01*
X182428285Y-88224761D01*
X182380666Y-88177142D01*
X182333047Y-88081904D01*
X182333047Y-87796190D01*
X182380666Y-87700952D01*
X182428285Y-87653333D01*
X182523523Y-87605714D01*
X182714000Y-87605714D01*
X182809238Y-87653333D01*
X183285428Y-88272380D02*
X183285428Y-87605714D01*
X183285428Y-87272380D02*
X183237809Y-87320000D01*
X183285428Y-87367619D01*
X183333047Y-87320000D01*
X183285428Y-87272380D01*
X183285428Y-87367619D01*
X183618761Y-87605714D02*
X183999714Y-87605714D01*
X183761619Y-87272380D02*
X183761619Y-88129523D01*
X183809238Y-88224761D01*
X183904476Y-88272380D01*
X183999714Y-88272380D01*
X184333047Y-88272380D02*
X184333047Y-87272380D01*
X184761619Y-88272380D02*
X184761619Y-87748571D01*
X184714000Y-87653333D01*
X184618761Y-87605714D01*
X184475904Y-87605714D01*
X184380666Y-87653333D01*
X184333047Y-87700952D01*
X185666380Y-87605714D02*
X185666380Y-88272380D01*
X185237809Y-87605714D02*
X185237809Y-88129523D01*
X185285428Y-88224761D01*
X185380666Y-88272380D01*
X185523523Y-88272380D01*
X185618761Y-88224761D01*
X185666380Y-88177142D01*
X186142571Y-88272380D02*
X186142571Y-87272380D01*
X186142571Y-87653333D02*
X186237809Y-87605714D01*
X186428285Y-87605714D01*
X186523523Y-87653333D01*
X186571142Y-87700952D01*
X186618761Y-87796190D01*
X186618761Y-88081904D01*
X186571142Y-88177142D01*
X186523523Y-88224761D01*
X186428285Y-88272380D01*
X186237809Y-88272380D01*
X186142571Y-88224761D01*
X187047333Y-88177142D02*
X187094952Y-88224761D01*
X187047333Y-88272380D01*
X186999714Y-88224761D01*
X187047333Y-88177142D01*
X187047333Y-88272380D01*
X187952095Y-88224761D02*
X187856857Y-88272380D01*
X187666380Y-88272380D01*
X187571142Y-88224761D01*
X187523523Y-88177142D01*
X187475904Y-88081904D01*
X187475904Y-87796190D01*
X187523523Y-87700952D01*
X187571142Y-87653333D01*
X187666380Y-87605714D01*
X187856857Y-87605714D01*
X187952095Y-87653333D01*
X188523523Y-88272380D02*
X188428285Y-88224761D01*
X188380666Y-88177142D01*
X188333047Y-88081904D01*
X188333047Y-87796190D01*
X188380666Y-87700952D01*
X188428285Y-87653333D01*
X188523523Y-87605714D01*
X188666380Y-87605714D01*
X188761619Y-87653333D01*
X188809238Y-87700952D01*
X188856857Y-87796190D01*
X188856857Y-88081904D01*
X188809238Y-88177142D01*
X188761619Y-88224761D01*
X188666380Y-88272380D01*
X188523523Y-88272380D01*
X189285428Y-88272380D02*
X189285428Y-87605714D01*
X189285428Y-87700952D02*
X189333047Y-87653333D01*
X189428285Y-87605714D01*
X189571142Y-87605714D01*
X189666380Y-87653333D01*
X189714000Y-87748571D01*
X189714000Y-88272380D01*
X189714000Y-87748571D02*
X189761619Y-87653333D01*
X189856857Y-87605714D01*
X189999714Y-87605714D01*
X190094952Y-87653333D01*
X190142571Y-87748571D01*
X190142571Y-88272380D01*
X191333047Y-87224761D02*
X190475904Y-88510476D01*
X191523523Y-87605714D02*
X191904476Y-87605714D01*
X191666380Y-87272380D02*
X191666380Y-88129523D01*
X191714000Y-88224761D01*
X191809238Y-88272380D01*
X191904476Y-88272380D01*
X192618761Y-88224761D02*
X192523523Y-88272380D01*
X192333047Y-88272380D01*
X192237809Y-88224761D01*
X192190190Y-88129523D01*
X192190190Y-87748571D01*
X192237809Y-87653333D01*
X192333047Y-87605714D01*
X192523523Y-87605714D01*
X192618761Y-87653333D01*
X192666380Y-87748571D01*
X192666380Y-87843809D01*
X192190190Y-87939047D01*
X193094952Y-88272380D02*
X193094952Y-87272380D01*
X193094952Y-87653333D02*
X193190190Y-87605714D01*
X193380666Y-87605714D01*
X193475904Y-87653333D01*
X193523523Y-87700952D01*
X193571142Y-87796190D01*
X193571142Y-88081904D01*
X193523523Y-88177142D01*
X193475904Y-88224761D01*
X193380666Y-88272380D01*
X193190190Y-88272380D01*
X193094952Y-88224761D01*
X194142571Y-88272380D02*
X194047333Y-88224761D01*
X193999714Y-88129523D01*
X193999714Y-87272380D01*
X200994000Y-86622380D02*
X200517809Y-86622380D01*
X200517809Y-85622380D01*
X201327333Y-86622380D02*
X201327333Y-85955714D01*
X201327333Y-85622380D02*
X201279714Y-85670000D01*
X201327333Y-85717619D01*
X201374952Y-85670000D01*
X201327333Y-85622380D01*
X201327333Y-85717619D01*
X202232095Y-86574761D02*
X202136857Y-86622380D01*
X201946380Y-86622380D01*
X201851142Y-86574761D01*
X201803523Y-86527142D01*
X201755904Y-86431904D01*
X201755904Y-86146190D01*
X201803523Y-86050952D01*
X201851142Y-86003333D01*
X201946380Y-85955714D01*
X202136857Y-85955714D01*
X202232095Y-86003333D01*
X203041619Y-86574761D02*
X202946380Y-86622380D01*
X202755904Y-86622380D01*
X202660666Y-86574761D01*
X202613047Y-86479523D01*
X202613047Y-86098571D01*
X202660666Y-86003333D01*
X202755904Y-85955714D01*
X202946380Y-85955714D01*
X203041619Y-86003333D01*
X203089238Y-86098571D01*
X203089238Y-86193809D01*
X202613047Y-86289047D01*
X203517809Y-85955714D02*
X203517809Y-86622380D01*
X203517809Y-86050952D02*
X203565428Y-86003333D01*
X203660666Y-85955714D01*
X203803523Y-85955714D01*
X203898761Y-86003333D01*
X203946380Y-86098571D01*
X203946380Y-86622380D01*
X204374952Y-86574761D02*
X204470190Y-86622380D01*
X204660666Y-86622380D01*
X204755904Y-86574761D01*
X204803523Y-86479523D01*
X204803523Y-86431904D01*
X204755904Y-86336666D01*
X204660666Y-86289047D01*
X204517809Y-86289047D01*
X204422571Y-86241428D01*
X204374952Y-86146190D01*
X204374952Y-86098571D01*
X204422571Y-86003333D01*
X204517809Y-85955714D01*
X204660666Y-85955714D01*
X204755904Y-86003333D01*
X205613047Y-86574761D02*
X205517809Y-86622380D01*
X205327333Y-86622380D01*
X205232095Y-86574761D01*
X205184476Y-86479523D01*
X205184476Y-86098571D01*
X205232095Y-86003333D01*
X205327333Y-85955714D01*
X205517809Y-85955714D01*
X205613047Y-86003333D01*
X205660666Y-86098571D01*
X205660666Y-86193809D01*
X205184476Y-86289047D01*
X206517809Y-86622380D02*
X206517809Y-85622380D01*
X206517809Y-86574761D02*
X206422571Y-86622380D01*
X206232095Y-86622380D01*
X206136857Y-86574761D01*
X206089238Y-86527142D01*
X206041619Y-86431904D01*
X206041619Y-86146190D01*
X206089238Y-86050952D01*
X206136857Y-86003333D01*
X206232095Y-85955714D01*
X206422571Y-85955714D01*
X206517809Y-86003333D01*
X208184476Y-85955714D02*
X208184476Y-86622380D01*
X207755904Y-85955714D02*
X207755904Y-86479523D01*
X207803523Y-86574761D01*
X207898761Y-86622380D01*
X208041619Y-86622380D01*
X208136857Y-86574761D01*
X208184476Y-86527142D01*
X208660666Y-85955714D02*
X208660666Y-86622380D01*
X208660666Y-86050952D02*
X208708285Y-86003333D01*
X208803523Y-85955714D01*
X208946380Y-85955714D01*
X209041619Y-86003333D01*
X209089238Y-86098571D01*
X209089238Y-86622380D01*
X209994000Y-86622380D02*
X209994000Y-85622380D01*
X209994000Y-86574761D02*
X209898761Y-86622380D01*
X209708285Y-86622380D01*
X209613047Y-86574761D01*
X209565428Y-86527142D01*
X209517809Y-86431904D01*
X209517809Y-86146190D01*
X209565428Y-86050952D01*
X209613047Y-86003333D01*
X209708285Y-85955714D01*
X209898761Y-85955714D01*
X209994000Y-86003333D01*
X210851142Y-86574761D02*
X210755904Y-86622380D01*
X210565428Y-86622380D01*
X210470190Y-86574761D01*
X210422571Y-86479523D01*
X210422571Y-86098571D01*
X210470190Y-86003333D01*
X210565428Y-85955714D01*
X210755904Y-85955714D01*
X210851142Y-86003333D01*
X210898761Y-86098571D01*
X210898761Y-86193809D01*
X210422571Y-86289047D01*
X211327333Y-86622380D02*
X211327333Y-85955714D01*
X211327333Y-86146190D02*
X211374952Y-86050952D01*
X211422571Y-86003333D01*
X211517809Y-85955714D01*
X211613047Y-85955714D01*
X201041619Y-88177142D02*
X200994000Y-88224761D01*
X200851142Y-88272380D01*
X200755904Y-88272380D01*
X200613047Y-88224761D01*
X200517809Y-88129523D01*
X200470190Y-88034285D01*
X200422571Y-87843809D01*
X200422571Y-87700952D01*
X200470190Y-87510476D01*
X200517809Y-87415238D01*
X200613047Y-87320000D01*
X200755904Y-87272380D01*
X200851142Y-87272380D01*
X200994000Y-87320000D01*
X201041619Y-87367619D01*
X201470190Y-87748571D02*
X201803523Y-87748571D01*
X201946380Y-88272380D02*
X201470190Y-88272380D01*
X201470190Y-87272380D01*
X201946380Y-87272380D01*
X202946380Y-88272380D02*
X202613047Y-87796190D01*
X202374952Y-88272380D02*
X202374952Y-87272380D01*
X202755904Y-87272380D01*
X202851142Y-87320000D01*
X202898761Y-87367619D01*
X202946380Y-87462857D01*
X202946380Y-87605714D01*
X202898761Y-87700952D01*
X202851142Y-87748571D01*
X202755904Y-87796190D01*
X202374952Y-87796190D01*
X203374952Y-88272380D02*
X203374952Y-87272380D01*
X203946380Y-88272380D01*
X203946380Y-87272380D01*
X205374952Y-87272380D02*
X205565428Y-87272380D01*
X205660666Y-87320000D01*
X205755904Y-87415238D01*
X205803523Y-87605714D01*
X205803523Y-87939047D01*
X205755904Y-88129523D01*
X205660666Y-88224761D01*
X205565428Y-88272380D01*
X205374952Y-88272380D01*
X205279714Y-88224761D01*
X205184476Y-88129523D01*
X205136857Y-87939047D01*
X205136857Y-87605714D01*
X205184476Y-87415238D01*
X205279714Y-87320000D01*
X205374952Y-87272380D01*
X206232095Y-88272380D02*
X206232095Y-87272380D01*
X206232095Y-87748571D02*
X206803523Y-87748571D01*
X206803523Y-88272380D02*
X206803523Y-87272380D01*
X207755904Y-88272380D02*
X207279714Y-88272380D01*
X207279714Y-87272380D01*
X208755904Y-87605714D02*
X208994000Y-88272380D01*
X209232095Y-87605714D01*
X210136857Y-88272380D02*
X209565428Y-88272380D01*
X209851142Y-88272380D02*
X209851142Y-87272380D01*
X209755904Y-87415238D01*
X209660666Y-87510476D01*
X209565428Y-87558095D01*
X210565428Y-88177142D02*
X210613047Y-88224761D01*
X210565428Y-88272380D01*
X210517809Y-88224761D01*
X210565428Y-88177142D01*
X210565428Y-88272380D01*
X210993999Y-87367619D02*
X211041619Y-87320000D01*
X211136857Y-87272380D01*
X211374952Y-87272380D01*
X211470190Y-87320000D01*
X211517809Y-87367619D01*
X211565428Y-87462857D01*
X211565428Y-87558095D01*
X211517809Y-87700952D01*
X210946380Y-88272380D01*
X211565428Y-88272380D01*
M02*
