%TF.GenerationSoftware,KiCad,Pcbnew,(5.1.8)-1*%
%TF.CreationDate,2021-03-16T23:03:37+01:00*%
%TF.ProjectId,C64 BlinkenDiag,43363420-426c-4696-9e6b-656e44696167,rev?*%
%TF.SameCoordinates,Original*%
%TF.FileFunction,Soldermask,Bot*%
%TF.FilePolarity,Negative*%
%FSLAX46Y46*%
G04 Gerber Fmt 4.6, Leading zero omitted, Abs format (unit mm)*
G04 Created by KiCad (PCBNEW (5.1.8)-1) date 2021-03-16 23:03:37*
%MOMM*%
%LPD*%
G01*
G04 APERTURE LIST*
%ADD10C,1.524000*%
%ADD11R,1.524000X1.524000*%
%ADD12R,1.700000X1.700000*%
%ADD13O,1.700000X1.700000*%
%ADD14O,1.600000X1.600000*%
%ADD15R,1.600000X1.600000*%
%ADD16R,2.400000X1.600000*%
%ADD17O,2.400000X1.600000*%
%ADD18C,1.600000*%
%ADD19C,2.000000*%
%ADD20R,1.600000X2.400000*%
%ADD21O,1.600000X2.400000*%
%ADD22C,3.500000*%
%ADD23C,5.100000*%
%ADD24C,1.800000*%
%ADD25R,1.800000X1.800000*%
%ADD26R,1.200000X1.200000*%
%ADD27C,1.200000*%
%ADD28O,1.700000X2.000000*%
%ADD29C,0.254000*%
%ADD30C,0.100000*%
G04 APERTURE END LIST*
D10*
%TO.C,SW2*%
X216974000Y-51435000D03*
X216974000Y-53975000D03*
X216974000Y-56515000D03*
D11*
X211524000Y-56515000D03*
D10*
X211524000Y-53975000D03*
X211524000Y-51435000D03*
%TD*%
%TO.C,SW1*%
X216974000Y-74295000D03*
X216974000Y-76835000D03*
X216974000Y-79375000D03*
D11*
X211524000Y-79375000D03*
D10*
X211524000Y-76835000D03*
X211524000Y-74295000D03*
%TD*%
%TO.C,SW3*%
X216974000Y-62865000D03*
X216974000Y-65405000D03*
X216974000Y-67945000D03*
D11*
X211524000Y-67945000D03*
D10*
X211524000Y-65405000D03*
X211524000Y-62865000D03*
%TD*%
D12*
%TO.C,JP1*%
X124714000Y-70485000D03*
D13*
X124714000Y-73025000D03*
X124714000Y-75565000D03*
%TD*%
D14*
%TO.C,RN2*%
X152019000Y-32385000D03*
X149479000Y-32385000D03*
X146939000Y-32385000D03*
X144399000Y-32385000D03*
X141859000Y-32385000D03*
X139319000Y-32385000D03*
X136779000Y-32385000D03*
X134239000Y-32385000D03*
D15*
X131699000Y-32385000D03*
%TD*%
D16*
%TO.C,U2*%
X124714000Y-41275000D03*
D17*
X132334000Y-64135000D03*
X124714000Y-43815000D03*
X132334000Y-61595000D03*
X124714000Y-46355000D03*
X132334000Y-59055000D03*
X124714000Y-48895000D03*
X132334000Y-56515000D03*
X124714000Y-51435000D03*
X132334000Y-53975000D03*
X124714000Y-53975000D03*
X132334000Y-51435000D03*
X124714000Y-56515000D03*
X132334000Y-48895000D03*
X124714000Y-59055000D03*
X132334000Y-46355000D03*
X124714000Y-61595000D03*
X132334000Y-43815000D03*
X124714000Y-64135000D03*
X132334000Y-41275000D03*
%TD*%
D18*
%TO.C,C2*%
X132334000Y-37465000D03*
X127334000Y-37465000D03*
%TD*%
D19*
%TO.C,SW4*%
X216499000Y-45160000D03*
X211999000Y-45160000D03*
X216499000Y-38660000D03*
X211999000Y-38660000D03*
%TD*%
D20*
%TO.C,U1*%
X139319000Y-102235000D03*
D21*
X172339000Y-86995000D03*
X141859000Y-102235000D03*
X169799000Y-86995000D03*
X144399000Y-102235000D03*
X167259000Y-86995000D03*
X146939000Y-102235000D03*
X164719000Y-86995000D03*
X149479000Y-102235000D03*
X162179000Y-86995000D03*
X152019000Y-102235000D03*
X159639000Y-86995000D03*
X154559000Y-102235000D03*
X157099000Y-86995000D03*
X157099000Y-102235000D03*
X154559000Y-86995000D03*
X159639000Y-102235000D03*
X152019000Y-86995000D03*
X162179000Y-102235000D03*
X149479000Y-86995000D03*
X164719000Y-102235000D03*
X146939000Y-86995000D03*
X167259000Y-102235000D03*
X144399000Y-86995000D03*
X169799000Y-102235000D03*
X141859000Y-86995000D03*
X172339000Y-102235000D03*
X139319000Y-86995000D03*
%TD*%
D18*
%TO.C,R1*%
X125095000Y-95885000D03*
D14*
X135255000Y-95885000D03*
%TD*%
%TO.C,R2*%
X135255000Y-99060000D03*
D18*
X125095000Y-99060000D03*
%TD*%
D22*
%TO.C,A1*%
X204889000Y-27940000D03*
X177889000Y-27940000D03*
%TD*%
D23*
%TO.C,M1*%
X124079000Y-86995000D03*
%TD*%
%TO.C,M2*%
X215900000Y-86995000D03*
%TD*%
%TO.C,M3*%
X215900000Y-24511000D03*
%TD*%
%TO.C,M4*%
X124079000Y-24511000D03*
%TD*%
D24*
%TO.C,D1*%
X169164000Y-23495000D03*
D25*
X169164000Y-26035000D03*
%TD*%
%TO.C,D2*%
X131699000Y-26035000D03*
D24*
X131699000Y-23495000D03*
%TD*%
%TO.C,D3*%
X138684000Y-23495000D03*
D25*
X138684000Y-26035000D03*
%TD*%
%TO.C,D4*%
X145669000Y-26035000D03*
D24*
X145669000Y-23495000D03*
%TD*%
%TO.C,D5*%
X152654000Y-23495000D03*
D25*
X152654000Y-26035000D03*
%TD*%
%TO.C,D6*%
X162179000Y-26035000D03*
D24*
X162179000Y-23495000D03*
%TD*%
%TO.C,D7*%
X162179000Y-30480000D03*
D25*
X162179000Y-33020000D03*
%TD*%
%TO.C,D8*%
X169164000Y-33020000D03*
D24*
X169164000Y-30480000D03*
%TD*%
D18*
%TO.C,C1*%
X135509000Y-91995000D03*
X135509000Y-86995000D03*
%TD*%
%TO.C,C3*%
X146304000Y-37465000D03*
X141304000Y-37465000D03*
%TD*%
%TO.C,C4*%
X169799000Y-79295000D03*
X169799000Y-74295000D03*
%TD*%
%TO.C,C5*%
X138049000Y-74295000D03*
X138049000Y-79295000D03*
%TD*%
D26*
%TO.C,C6*%
X124079000Y-82550000D03*
D27*
X124079000Y-80550000D03*
%TD*%
D24*
%TO.C,D9*%
X154559000Y-38735000D03*
D25*
X154559000Y-41275000D03*
%TD*%
D24*
%TO.C,D10*%
X161544000Y-38735000D03*
D25*
X161544000Y-41275000D03*
%TD*%
D24*
%TO.C,D11*%
X168529000Y-38735000D03*
D25*
X168529000Y-41275000D03*
%TD*%
%TO.C,D12*%
X175514000Y-41275000D03*
D24*
X175514000Y-38735000D03*
%TD*%
%TO.C,D13*%
X183134000Y-38735000D03*
D25*
X183134000Y-41275000D03*
%TD*%
%TO.C,D14*%
X190119000Y-41275000D03*
D24*
X190119000Y-38735000D03*
%TD*%
%TO.C,D15*%
X197104000Y-38735000D03*
D25*
X197104000Y-41275000D03*
%TD*%
%TO.C,D16*%
X204089000Y-41275000D03*
D24*
X204089000Y-38735000D03*
%TD*%
D25*
%TO.C,D17*%
X154559000Y-52705000D03*
D24*
X154559000Y-50165000D03*
%TD*%
%TO.C,D18*%
X161544000Y-50165000D03*
D25*
X161544000Y-52705000D03*
%TD*%
%TO.C,D19*%
X168529000Y-52705000D03*
D24*
X168529000Y-50165000D03*
%TD*%
%TO.C,D20*%
X175514000Y-50165000D03*
D25*
X175514000Y-52705000D03*
%TD*%
%TO.C,D21*%
X183134000Y-52705000D03*
D24*
X183134000Y-50165000D03*
%TD*%
%TO.C,D22*%
X190119000Y-50165000D03*
D25*
X190119000Y-52705000D03*
%TD*%
%TO.C,D23*%
X197104000Y-52705000D03*
D24*
X197104000Y-50165000D03*
%TD*%
%TO.C,D24*%
X204089000Y-50165000D03*
D25*
X204089000Y-52705000D03*
%TD*%
%TO.C,D25*%
X154559000Y-64135000D03*
D24*
X154559000Y-61595000D03*
%TD*%
%TO.C,D26*%
X161544000Y-61595000D03*
D25*
X161544000Y-64135000D03*
%TD*%
%TO.C,D27*%
X168529000Y-64135000D03*
D24*
X168529000Y-61595000D03*
%TD*%
D25*
%TO.C,D28*%
X175514000Y-64135000D03*
D24*
X175514000Y-61595000D03*
%TD*%
%TO.C,D29*%
X183134000Y-61595000D03*
D25*
X183134000Y-64135000D03*
%TD*%
%TO.C,D30*%
X190119000Y-64135000D03*
D24*
X190119000Y-61595000D03*
%TD*%
D25*
%TO.C,D31*%
X197104000Y-64135000D03*
D24*
X197104000Y-61595000D03*
%TD*%
%TO.C,D32*%
X204089000Y-61595000D03*
D25*
X204089000Y-64135000D03*
%TD*%
D13*
%TO.C,JP2*%
X127254000Y-75565000D03*
X127254000Y-73025000D03*
D12*
X127254000Y-70485000D03*
%TD*%
%TO.C,JP3*%
X132334000Y-70485000D03*
D13*
X132334000Y-73025000D03*
X132334000Y-75565000D03*
%TD*%
%TO.C,JP4*%
X134874000Y-75565000D03*
X134874000Y-73025000D03*
D12*
X134874000Y-70485000D03*
%TD*%
D17*
%TO.C,U3*%
X146304000Y-41275000D03*
X138684000Y-64135000D03*
X146304000Y-43815000D03*
X138684000Y-61595000D03*
X146304000Y-46355000D03*
X138684000Y-59055000D03*
X146304000Y-48895000D03*
X138684000Y-56515000D03*
X146304000Y-51435000D03*
X138684000Y-53975000D03*
X146304000Y-53975000D03*
X138684000Y-51435000D03*
X146304000Y-56515000D03*
X138684000Y-48895000D03*
X146304000Y-59055000D03*
X138684000Y-46355000D03*
X146304000Y-61595000D03*
X138684000Y-43815000D03*
X146304000Y-64135000D03*
D16*
X138684000Y-41275000D03*
%TD*%
D20*
%TO.C,U4*%
X173609000Y-81915000D03*
D21*
X196469000Y-74295000D03*
X176149000Y-81915000D03*
X193929000Y-74295000D03*
X178689000Y-81915000D03*
X191389000Y-74295000D03*
X181229000Y-81915000D03*
X188849000Y-74295000D03*
X183769000Y-81915000D03*
X186309000Y-74295000D03*
X186309000Y-81915000D03*
X183769000Y-74295000D03*
X188849000Y-81915000D03*
X181229000Y-74295000D03*
X191389000Y-81915000D03*
X178689000Y-74295000D03*
X193929000Y-81915000D03*
X176149000Y-74295000D03*
X196469000Y-81915000D03*
X173609000Y-74295000D03*
%TD*%
D20*
%TO.C,U5*%
X141859000Y-81915000D03*
D21*
X164719000Y-74295000D03*
X144399000Y-81915000D03*
X162179000Y-74295000D03*
X146939000Y-81915000D03*
X159639000Y-74295000D03*
X149479000Y-81915000D03*
X157099000Y-74295000D03*
X152019000Y-81915000D03*
X154559000Y-74295000D03*
X154559000Y-81915000D03*
X152019000Y-74295000D03*
X157099000Y-81915000D03*
X149479000Y-74295000D03*
X159639000Y-81915000D03*
X146939000Y-74295000D03*
X162179000Y-81915000D03*
X144399000Y-74295000D03*
X164719000Y-81915000D03*
X141859000Y-74295000D03*
%TD*%
D14*
%TO.C,RN1*%
X177419000Y-45720000D03*
X174879000Y-45720000D03*
X172339000Y-45720000D03*
X169799000Y-45720000D03*
X167259000Y-45720000D03*
X164719000Y-45720000D03*
X162179000Y-45720000D03*
X159639000Y-45720000D03*
D15*
X157099000Y-45720000D03*
%TD*%
%TO.C,RN3*%
X157099000Y-57150000D03*
D14*
X159639000Y-57150000D03*
X162179000Y-57150000D03*
X164719000Y-57150000D03*
X167259000Y-57150000D03*
X169799000Y-57150000D03*
X172339000Y-57150000D03*
X174879000Y-57150000D03*
X177419000Y-57150000D03*
%TD*%
D15*
%TO.C,RN4*%
X157099000Y-68580000D03*
D14*
X159639000Y-68580000D03*
X162179000Y-68580000D03*
X164719000Y-68580000D03*
X167259000Y-68580000D03*
X169799000Y-68580000D03*
X172339000Y-68580000D03*
X174879000Y-68580000D03*
X177419000Y-68580000D03*
%TD*%
%TO.C,J2*%
G36*
G01*
X216369000Y-32270000D02*
X216369000Y-33770000D01*
G75*
G02*
X216119000Y-34020000I-250000J0D01*
G01*
X214919000Y-34020000D01*
G75*
G02*
X214669000Y-33770000I0J250000D01*
G01*
X214669000Y-32270000D01*
G75*
G02*
X214919000Y-32020000I250000J0D01*
G01*
X216119000Y-32020000D01*
G75*
G02*
X216369000Y-32270000I0J-250000D01*
G01*
G37*
D28*
X213019000Y-33020000D03*
%TD*%
D29*
X178079400Y-120068197D02*
X178009773Y-120198459D01*
X177883420Y-120352420D01*
X177729459Y-120478773D01*
X177599197Y-120548400D01*
X120850803Y-120548400D01*
X120720541Y-120478773D01*
X120566580Y-120352420D01*
X120440227Y-120198459D01*
X120370600Y-120068197D01*
X120370600Y-111887000D01*
X178079400Y-111887000D01*
X178079400Y-120068197D01*
D30*
G36*
X178079400Y-120068197D02*
G01*
X178009773Y-120198459D01*
X177883420Y-120352420D01*
X177729459Y-120478773D01*
X177599197Y-120548400D01*
X120850803Y-120548400D01*
X120720541Y-120478773D01*
X120566580Y-120352420D01*
X120440227Y-120198459D01*
X120370600Y-120068197D01*
X120370600Y-111887000D01*
X178079400Y-111887000D01*
X178079400Y-120068197D01*
G37*
M02*
