M48
INCH,TZ
T1C0.0157
T2C0.0236
T3C0.0300
T4C0.0315
T5C0.0354
T6C0.0394
T7C0.0433
T8C0.1200
%
G90
G05
T1
X48250Y-42550
X48350Y-14250
X49600Y-43750
X49850Y-17750
X50004Y-37000
X50100Y-18000
X50250Y-43750
X50496Y-33500
X50600Y-19000
X50600Y-43500
X50850Y-20000
X51100Y-21000
X51350Y-22050
X52100Y-36750
X52250Y-43000
X52600Y-30500
X53350Y-16250
X53350Y-24500
X54350Y-42750
X54600Y-43000
X54850Y-28000
X54850Y-32000
X55600Y-36750
X55600Y-37250
X55850Y-37500
X55850Y-39250
X55850Y-41750
X55850Y-43500
X56100Y-33250
X56100Y-38750
X56301Y-35049
X56350Y-29750
X56350Y-33500
X56600Y-35500
X56600Y-37250
X56600Y-38250
X56600Y-43500
X56850Y-38750
X57100Y-36750
X57100Y-41250
X57350Y-33500
X57600Y-36250
X57600Y-36750
X57600Y-41250
X57850Y-42500
X58100Y-12250
X58100Y-35250
X58100Y-37746
X58100Y-41000
X58100Y-43500
X58350Y-33500
X58350Y-38250
X58600Y-41500
X58850Y-14250
X58850Y-30500
X58850Y-35750
X58850Y-43500
X59100Y-35205
X59350Y-27000
X59350Y-33500
X59350Y-38500
X59600Y-26750
X59600Y-30772
X59600Y-36000
X59600Y-43750
X59649Y-35451
X59850Y-27000
X59850Y-38750
X60051Y-35549
X60100Y-26750
X60100Y-36000
X60350Y-33500
X60350Y-38750
X60350Y-31022
X60600Y-35250
X60600Y-36000
X60600Y-39500
X60600Y-43750
X61100Y-31250
X61350Y-39000
X61600Y-24000
X61850Y-25000
X61850Y-25500
X62100Y-24250
X62100Y-25750
X62100Y-31500
X62100Y-33000
X62100Y-39557
X62850Y-36250
X63100Y-35750
X63399Y-27951
X63600Y-31000
X63600Y-31500
X63600Y-35000
X63649Y-28201
X63850Y-31250
X63850Y-33250
X64100Y-28250
X64600Y-31500
X65040Y-39310
X65850Y-37746
X66100Y-39557
X66600Y-35500
X66850Y-38742
X67097Y-37689
X67100Y-38496
X67100Y-39000
X67350Y-35500
X67350Y-37935
X67350Y-38250
X67350Y-42500
X67401Y-39310
X67850Y-35500
X68600Y-28500
X69250Y-42900
X71100Y-16000
X71100Y-17500
X73850Y-16500
X73850Y-17500
X75350Y-26500
X75600Y-25750
X76600Y-33750
X76600Y-34250
X76850Y-34000
X76850Y-34500
X78100Y-33250
X78350Y-25500
X78350Y-26000
X78600Y-33250
X79600Y-20500
X79600Y-25500
X79600Y-26000
X79850Y-21500
X80600Y-33000
X84100Y-21500
X84100Y-22000
X84350Y-21250
X84350Y-22250
T2
X48850Y-31713
X48850Y-32500
T3
X83277Y-20250
X83277Y-21250
X83277Y-22250
X85423Y-20250
X85423Y-21250
X85423Y-22250
X83277Y-29250
X83277Y-30250
X83277Y-31250
X85423Y-29250
X85423Y-30250
X85423Y-31250
X83277Y-24750
X83277Y-25750
X83277Y-26750
X85423Y-24750
X85423Y-25750
X85423Y-26750
T4
X61850Y-18000
X62850Y-18000
X63850Y-18000
X64850Y-18000
X65850Y-18000
X66850Y-18000
X67850Y-18000
X68850Y-18000
X69850Y-18000
X53350Y-34250
X53350Y-36219
X61850Y-22500
X62850Y-22500
X63850Y-22500
X64850Y-22500
X65850Y-22500
X66850Y-22500
X67850Y-22500
X68850Y-22500
X69850Y-22500
X49250Y-39000
X53250Y-39000
X68350Y-29250
X68350Y-32250
X69350Y-29250
X69350Y-32250
X70350Y-29250
X70350Y-32250
X71350Y-29250
X71350Y-32250
X72350Y-29250
X72350Y-32250
X73350Y-29250
X73350Y-32250
X74350Y-29250
X74350Y-32250
X75350Y-29250
X75350Y-32250
X76350Y-29250
X76350Y-32250
X77350Y-29250
X77350Y-32250
X54350Y-29250
X54350Y-31219
X49250Y-37750
X53250Y-37750
X54600Y-16250
X54600Y-17250
X54600Y-18250
X54600Y-19250
X54600Y-20250
X54600Y-21250
X54600Y-22250
X54600Y-23250
X54600Y-24250
X54600Y-25250
X57600Y-16250
X57600Y-17250
X57600Y-18250
X57600Y-19250
X57600Y-20250
X57600Y-21250
X57600Y-22250
X57600Y-23250
X57600Y-24250
X57600Y-25250
X54850Y-34250
X54850Y-40250
X55850Y-34250
X55850Y-40250
X56850Y-34250
X56850Y-40250
X57850Y-34250
X57850Y-40250
X58850Y-34250
X58850Y-40250
X59850Y-34250
X59850Y-40250
X60850Y-34250
X60850Y-40250
X61850Y-34250
X61850Y-40250
X62850Y-34250
X62850Y-40250
X63850Y-34250
X63850Y-40250
X64850Y-34250
X64850Y-40250
X65850Y-34250
X65850Y-40250
X66850Y-34250
X66850Y-40250
X67850Y-34250
X67850Y-40250
X55631Y-14750
X57600Y-14750
X55850Y-29250
X55850Y-32250
X56850Y-29250
X56850Y-32250
X57850Y-29250
X57850Y-32250
X58850Y-29250
X58850Y-32250
X59850Y-29250
X59850Y-32250
X60850Y-29250
X60850Y-32250
X61850Y-29250
X61850Y-32250
X62850Y-29250
X62850Y-32250
X63850Y-29250
X63850Y-32250
X64850Y-29250
X64850Y-32250
X49100Y-16250
X49100Y-17250
X49100Y-18250
X49100Y-19250
X49100Y-20250
X49100Y-21250
X49100Y-22250
X49100Y-23250
X49100Y-24250
X49100Y-25250
X52100Y-16250
X52100Y-17250
X52100Y-18250
X52100Y-19250
X52100Y-20250
X52100Y-21250
X52100Y-22250
X52100Y-23250
X52100Y-24250
X52100Y-25250
X61850Y-27000
X62850Y-27000
X63850Y-27000
X64850Y-27000
X65850Y-27000
X66850Y-27000
X67850Y-27000
X68850Y-27000
X69850Y-27000
X50131Y-14750
X52100Y-14750
X51850Y-12750
X52850Y-12750
X53850Y-12750
X54850Y-12750
X55850Y-12750
X56850Y-12750
X57850Y-12750
X58850Y-12750
X59850Y-12750
X66850Y-29250
X66850Y-31219
T5
X77600Y-24250
X77600Y-25250
X60100Y-9250
X60100Y-10250
X60850Y-15250
X60850Y-16250
X63600Y-19750
X63600Y-20750
X60850Y-24250
X60850Y-25250
X69100Y-15250
X69100Y-16250
X57350Y-9250
X57350Y-10250
X74850Y-24250
X74850Y-25250
X77600Y-15250
X77600Y-16250
X66350Y-19750
X66350Y-20750
X63600Y-15250
X63600Y-16250
X72100Y-24250
X72100Y-25250
X80350Y-15250
X80350Y-16250
X60850Y-19750
X60850Y-20750
X54600Y-9250
X54600Y-10250
X72100Y-19750
X72100Y-20750
X72100Y-15250
X72100Y-16250
X66600Y-12000
X66600Y-13000
X74850Y-19750
X74850Y-20750
X51850Y-9250
X51850Y-10250
X69100Y-24250
X69100Y-25250
X66350Y-24250
X66350Y-25250
X63850Y-9250
X63850Y-10250
X66350Y-15250
X66350Y-16250
X66600Y-9250
X66600Y-10250
X63850Y-12000
X63850Y-13000
X80350Y-24250
X80350Y-25250
X74850Y-15250
X74850Y-16250
X69100Y-19750
X69100Y-20750
X80350Y-19750
X80350Y-20750
X63600Y-24250
X63600Y-25250
X77600Y-19750
X77600Y-20750
T6
X50100Y-27750
X50100Y-28750
X50100Y-29750
X52100Y-27750
X52100Y-28750
X52100Y-29750
X49100Y-27750
X49100Y-28750
X49100Y-29750
X83866Y-13000
X84850Y-13000
X53100Y-27750
X53100Y-28750
X53100Y-29750
T7
X83464Y-15220
X83464Y-17780
X85236Y-15220
X85236Y-17780
T8
X48850Y-34250
X48850Y-9650
X85000Y-34250
X85000Y-9650
T0
M30
